<?xml version="1.0" encoding="UTF-8" standalone="no"?>
<!-- Created with Inkscape (http://www.inkscape.org/) -->

<svg
   xmlns:dc="http://purl.org/dc/elements/1.1/"
   xmlns:cc="http://creativecommons.org/ns#"
   xmlns:rdf="http://www.w3.org/1999/02/22-rdf-syntax-ns#"
   xmlns:svg="http://www.w3.org/2000/svg"
   xmlns="http://www.w3.org/2000/svg"
   xmlns:sodipodi="http://sodipodi.sourceforge.net/DTD/sodipodi-0.dtd"
   xmlns:inkscape="http://www.inkscape.org/namespaces/inkscape"
   id="svg10288"
   version="1.1"
   inkscape:version="0.91 r13725"
   width="584.0625"
   height="528.75"
   viewBox="0 0 584.0625 528.75"
   sodipodi:docname="ChildWithBook2.svg">
  <metadata
     id="metadata10294">
    <rdf:RDF>
      <cc:Work
         rdf:about="">
        <dc:format>image/svg+xml</dc:format>
        <dc:type
           rdf:resource="http://purl.org/dc/dcmitype/StillImage" />
        <dc:title></dc:title>
      </cc:Work>
    </rdf:RDF>
  </metadata>
  <defs
     id="defs10292" />
  <sodipodi:namedview
     pagecolor="#ffffff"
     bordercolor="#666666"
     borderopacity="1"
     objecttolerance="10"
     gridtolerance="10"
     guidetolerance="10"
     inkscape:pageopacity="0"
     inkscape:pageshadow="2"
     inkscape:window-width="1600"
     inkscape:window-height="837"
     id="namedview10290"
     showgrid="false"
     inkscape:zoom="1.2671395"
     inkscape:cx="292.03125"
     inkscape:cy="264.375"
     inkscape:window-x="-8"
     inkscape:window-y="-8"
     inkscape:window-maximized="1"
     inkscape:current-layer="svg10288" />
  <path
     style="fill:#000000"
     d="m 282.62987,527.94624 c -0.50112,-0.4646 -2.48605,-1.34795 -4.41097,-1.96299 -1.96209,-0.62691 -4.386,-2.36272 -5.51665,-3.95059 -1.10925,-1.55779 -3.75307,-3.6024 -5.87515,-4.54358 -2.12209,-0.94119 -5.42882,-3.1901 -7.34829,-4.99759 -1.91946,-1.80748 -4.45071,-3.58628 -5.625,-3.9529 -1.17428,-0.36661 -3.47843,-1.83805 -5.12033,-3.26985 -1.64191,-1.43181 -3.96222,-2.89664 -5.15625,-3.25518 -1.19404,-0.35854 -4.49129,-2.39967 -7.32723,-4.53585 -7.05588,-5.31487 -10.97116,-7.37569 -12.90183,-6.79094 -0.89618,0.27143 -4.77299,0.57562 -8.61513,0.67598 -3.84213,0.10036 -8.48276,0.51406 -10.3125,0.91933 -1.82973,0.40528 -4.43354,0.9663 -5.78624,1.24672 -1.59146,0.32992 -2.87112,1.50372 -3.62593,3.32599 -0.64156,1.54887 -2.69887,3.74735 -4.5718,4.88553 -1.87293,1.13816 -4.88188,3.2207 -6.68657,4.62786 -4.38189,3.41668 -11.873,4.7335 -20.27155,3.56342 -8.31393,-1.15829 -10.66685,-2.93377 -13.04832,-9.84604 -3.61495,-10.49254 -5.3406,-14.37174 -7.10247,-15.96621 -0.97083,-0.8786 -1.76516,-2.11877 -1.76516,-2.75593 0,-1.47077 -12.98005,-2.28045 -18.23505,-1.13749 -2.03709,0.44307 -7.82174,0.95098 -12.85477,1.1287 -7.43584,0.26257 -9.77954,0.7116 -12.504549,2.39575 -2.097422,1.29628 -5.534661,2.26156 -9.176475,2.57705 -9.624923,0.83379 -20.793566,0.56761 -22.872715,-0.54512 -1.074746,-0.57518 -3.452858,-3.30379 -5.284692,-6.06356 -4.018342,-6.0539 -5.635926,-7.49398 -7.854837,-6.99296 -2.81297,0.63515 -6.530042,-1.83552 -9.595869,-6.37821 -2.905577,-4.30524 -5.983527,-10.72258 -5.14288,-10.72258 0.244743,0 -0.228288,-1.30197 -1.05118,-2.89327 -1.902676,-3.67936 -1.619271,-10.69775 0.591379,-14.6452 0.926258,-1.65396 2.104942,-4.39615 2.619296,-6.09375 1.819762,-6.00599 3.921252,-11.21961 7.02502,-17.42849 1.727462,-3.45567 3.632071,-7.79953 4.232465,-9.65301 1.259609,-3.88855 9.56697,-13.14575 13.698607,-15.26487 1.546875,-0.79339 7.764383,-6.06649 13.816687,-11.71799 6.605212,-6.1678 12.320453,-10.70987 14.296875,-11.36214 2.246569,-0.74144 3.292688,-1.65929 3.292688,-2.88898 0,-1.51295 -0.682134,-1.8023 -4.248862,-1.8023 -5.265885,0 -10.382385,-2.04876 -11.149057,-4.46433 -0.598412,-1.88543 -4.77056,-6.03606 -8.934945,-8.88887 -2.815276,-1.92859 -11.264726,-2.23665 -13.02663,-0.47493 -1.526025,1.52588 -15.3302,1.44313 -19.999287,-0.11988 -2.598061,-0.86971 -3.595431,-1.80638 -4.029926,-3.78462 -0.610701,-2.7805 -3.796542,-6.19869 -8.455043,-9.07167 -1.546875,-0.95398 -4.372993,-2.96033 -6.280262,-4.45855 -2.526332,-1.98451 -4.148665,-2.59387 -5.97587,-2.24457 -1.37946,0.2637 -3.932249,0.0863 -5.6728634,-0.39438 C 4.611754,326.8196 4.6476708,324.35089 8.90625,319.96597 12.11209,316.66502 12.957188,315 11.426776,315 c -0.418398,0 -1.7054626,-0.88016 -2.860144,-1.95591 -1.6607773,-1.54725 -1.869605,-2.23282 -0.9994844,-3.28125 1.8301696,-2.20522 3.6141674,-1.53092 7.9657504,3.01078 4.293118,4.48069 4.455665,4.82305 4.20154,8.84924 -0.125594,1.98982 1.127475,3.33974 7.271734,7.83374 4.082911,2.9863 7.844503,5.70133 8.359091,6.03339 0.514587,0.33207 1.647498,1.99298 2.517578,3.69091 0.87008,1.69793 2.703521,3.51356 4.074311,4.03474 3.40632,1.29508 17.026013,1.30119 18.318983,0.008 0.570001,-0.57021 3.753382,-1.03658 7.074179,-1.03658 l 6.037814,0 6.994378,7.10876 c 6.612325,6.72046 7.263609,7.13654 11.923275,7.61747 4.880391,0.5037 4.939322,0.47881 5.987831,-2.52895 1.324069,-3.79823 0.986213,-4.33059 -3.25304,-5.12588 -2.238535,-0.41995 -5.072247,-2.19368 -8.213484,-5.14114 -2.637711,-2.47499 -6.272401,-5.24708 -8.077088,-6.16018 -1.804688,-0.91311 -4.287362,-2.44429 -5.517055,-3.40264 -2.674526,-2.08435 -4.944318,-2.16719 -9.951695,-0.36323 -6.159776,2.21914 -11.253142,1.78 -18.025767,-1.55416 -3.3996,-1.67361 -7.256015,-4.45661 -8.768913,-6.32812 -1.485306,-1.83737 -4.185221,-5.17357 -5.999813,-7.41375 -1.814591,-2.2402 -3.299257,-4.65114 -3.299257,-5.35765 0,-2.46597 -8.006456,-5.74389 -16.255918,-6.65534 -5.7097977,-0.63084 -7.367767,-2.05536 -5.2966735,-4.55087 1.5536477,-1.87204 4.286384,-1.75787 12.8979505,0.53881 8.966705,2.39142 10.467814,3.35129 14.103594,9.01841 1.593928,2.48447 3.762162,5.45135 4.818299,6.59309 1.056136,1.14172 1.920248,2.28271 1.920248,2.5355 0,2.21441 10.468417,8.90805 14.015625,8.96178 1.826514,0.0277 0.131543,-1.5393 -2.296875,-2.12341 -1.38689,-0.33359 -1.187804,-0.47931 0.764757,-0.55975 1.451867,-0.0598 3.509426,0.35668 4.572351,0.92555 1.067841,0.57149 2.193863,0.66782 2.516493,0.21528 1.957084,-2.74508 8.178961,-3.30826 11.121925,-1.00673 0.639665,0.50025 4.53141,2.54339 8.648324,4.54031 4.116914,1.99692 9.426648,5.11264 11.799408,6.92381 4.808564,3.67046 6.635095,4.08296 7.31677,1.65241 1.423538,-5.07571 1.573453,-23.72291 0.250988,-31.21909 -1.527788,-8.66006 -2.673413,-30.9899 -2.7993,-54.56216 C 95.226984,243.81381 94.911159,240 94.062722,240 92.435772,240 90,236.22147 90,233.69765 c 0,-2.43989 1.523749,-2.69574 4.163559,-0.69909 1.014254,0.76715 3.815457,1.37644 6.328121,1.37644 4.18387,0 4.50832,-0.16868 4.50832,-2.34375 0,-1.98876 -0.46148,-2.36625 -3.04687,-2.49229 -1.67579,-0.0816 -3.89063,-0.0667 -4.92188,0.0334 -1.03125,0.10004 -3.432182,-0.5188 -5.335404,-1.37519 -5.105828,-2.29747 -5.426228,-4.50499 -0.992721,-6.83975 2.711882,-1.42812 2.664587,-2.36592 -0.184791,-3.66419 -3.684652,-1.67884 -5.361773,-5.17841 -5.581651,-11.64699 -0.110115,-3.23947 -0.490707,-6.52275 -0.84576,-7.29618 -0.380754,-0.82943 0.514268,-3.42515 2.181976,-6.32813 2.214132,-3.85414 3.331862,-4.92187 5.152315,-4.92187 1.278633,-4e-5 2.324786,-0.42192 2.324786,-0.93754 0,-0.51563 -0.408635,-0.9375 -0.908077,-0.9375 -0.499442,0 -0.706781,-0.52734 -0.460753,-1.17188 0.668821,-1.75214 -2.003312,-20.74535 -3.245073,-23.0656 -0.592386,-1.10689 -1.675185,-2.01252 -2.40622,-2.01252 -1.6631,0 -6.104877,1.98528 -6.104877,2.72861 0,0.30395 -1.160156,0.61899 -2.578125,0.70007 -1.417969,0.0811 -4.507712,0.44399 -6.866096,0.80644 -5.41659,0.83245 -11.571206,-1.92778 -12.493673,-5.60319 -0.345946,-1.37835 -2.190822,-3.38657 -4.381612,-4.76956 l -3.784074,-2.38878 -3.252189,2.00997 c -3.27748,2.02559 -6.019231,6.0709 -6.019231,8.88107 0,2.28742 -4.534386,9.80678 -8.467486,14.04162 -1.915546,2.0625 -4.967676,6.11352 -6.782511,9.00227 -4.995925,7.95221 -13.79227,12.61143 -18.2702758,9.67732 -2.9578469,-1.93805 -2.6485328,-6.98776 0.5125166,-8.36709 2.1518292,-0.93895 3.6535542,-4.29038 2.6500312,-5.91411 C 10.598441,179.70421 8.8189,179.06545 6.9377393,178.76018 2.8200942,178.09198 0,175.75162 0,173.00263 c 0,-3.38043 2.0920435,-5.0205 7.6845539,-6.02436 9.7316151,-1.74685 17.6006191,-7.10972 17.6420611,-12.02341 0.04742,-5.62221 7.014384,-15.51279 13.887808,-19.71569 2.656164,-1.62416 4.832842,-2.09807 9.535577,-2.07615 7.026799,0.0328 8.416202,0.66533 15.042703,6.84853 4.746219,4.42871 4.977216,4.5265 9.197419,3.89364 2.38091,-0.35705 5.47369,-1.24115 6.872846,-1.96468 1.399156,-0.72353 3.189645,-1.31551 3.978864,-1.31551 2.40673,0 2.790428,-4.64995 1.19702,-14.50641 -2.795786,-17.2941 -2.796824,-16.43648 0.02669,-22.05609 l 2.590705,-5.15625 9.375,-0.08222 c 8.56806,-0.07509 9.69778,0.126619 13.125,2.343749 2.0625,1.33427 4.30098,3.05876 4.9744,3.8322 1.01983,1.17129 1.125,0.49727 0.62948,-4.03394 -0.4002,-3.659549 -0.2264,-5.884256 0.53101,-6.796874 1.76318,-2.124507 5.9338,-1.634212 8.39636,0.987065 1.21102,1.289063 2.57054,2.34375 3.02118,2.34375 0.45064,0 3.64662,2.862569 7.1022,6.361279 3.45558,3.4987 9.27962,8.66667 12.94231,11.48437 3.66269,2.8177 9.99081,8.0117 14.0625,11.54221 4.07168,3.5305 9.09056,7.27806 11.15306,8.32788 4.23432,2.15529 9.30801,5.90784 15.3884,11.38143 l 4.13839,3.72539 0.90338,-2.27066 c 0.49685,-1.24886 1.25433,-4.32806 1.68327,-6.84267 0.42895,-2.51462 1.41128,-5.26969 2.18297,-6.12238 1.76481,-1.9501 2.27435,-16.28719 0.64846,-18.24626 -0.59574,-0.71782 -1.75321,-3.78106 -2.57218,-6.80723 -3.39682,-12.551546 -0.37187,-33.717528 6.94957,-48.627109 1.51921,-3.09375 3.08097,-6.679687 3.4706,-7.96875 0.38961,-1.289062 1.71358,-4.571096 2.94215,-7.293408 1.22855,-2.722293 2.23374,-5.152401 2.23374,-5.400221 0,-0.537827 5.48694,-8.423588 10.41104,-14.962602 6.10778,-8.110889 18.5903,-16.4992518 28.75094,-19.3208802 3.98435,-1.106461 10.19739,-3.0018865 13.80677,-4.2120571 5.36719,-1.79953976 8.52336,-2.20054176 17.32798,-2.20158247 5.92102,-6.9986e-4 12.40851,0.44114976 14.41666,0.98188797 2.00814,0.5407383 7.28868,1.1213747 11.73452,1.290303 4.44584,0.1689284 10.98711,0.6932016 14.53617,1.1650517 5.89509,0.783756 6.76911,1.1969773 10.11199,4.7807183 2.01254,2.1575448 4.50122,3.9228088 5.53041,3.9228088 3.57488,0 8.62779,2.837381 12.12184,6.806837 1.9327,2.195656 5.46483,4.9664 7.84919,6.157208 4.79528,2.394874 5.07744,2.640366 10.43374,9.077976 6.98396,8.393846 9.15791,13.241523 9.4547,21.082979 0.15663,4.138493 -0.28715,8.933334 -1.07867,11.654532 C 375.60515,69.509838 375,73.885078 375,76.689789 c 0,4.566064 0.65048,6.239863 6.21866,16.001718 3.42026,5.99623 6.8224,12.167873 7.5603,13.714743 0.73791,1.54688 1.73638,3.54505 2.21884,4.4404 0.48246,0.89535 0.86794,5.1141 0.85661,9.375 -0.024,9.02868 -1.87919,14.12509 -6.42552,17.65157 -1.6188,1.25567 -4.67084,3.65695 -6.78231,5.3362 -2.11147,1.67924 -4.80795,3.29634 -5.99217,3.59356 -3.92686,0.98558 -3.89621,8.82202 0.0345,8.82202 1.18676,0 2.8192,0.25382 3.62763,0.56406 1.01064,0.38781 1.76869,-0.22183 2.42619,-1.95121 0.52597,-1.38339 1.48106,-2.33534 2.12241,-2.11544 1.28319,0.43994 1.27524,3.50827 -0.0267,10.29946 -0.54306,2.83278 -0.52359,4.45313 0.0535,4.45313 0.79071,0 8.02659,-3.73435 23.17053,-11.95803 2.32031,-1.26001 4.85156,-2.79451 5.625,-3.41 0.77344,-0.6155 2.67188,-1.7337 4.21875,-2.4849 1.54688,-0.7512 4.5,-2.4649 6.5625,-3.80821 2.0625,-1.34333 6.91406,-4.0734 10.78125,-6.06686 6.49039,-3.34565 11.88622,-6.58848 26.69192,-16.04148 6.53672,-4.17351 15.637,-11.22799 19.88505,-15.41478 4.67507,-4.60765 6.09139,-3.32618 5.83998,5.28395 -0.1132,3.87692 0.0423,7.29703 0.34548,7.60023 0.3032,0.30322 3.09304,-0.32833 6.19964,-1.40343 6.08028,-2.10421 8.14217,-1.89535 9.03417,0.91512 0.42955,1.3534 1.44951,1.78839 4.19341,1.78839 8.07335,0 11.0112,3.75152 9.41465,12.02216 -0.46546,2.41125 -1.07817,10.98443 -1.36157,19.0515 -0.60424,17.19972 -0.5631,17.29225 7.32557,16.47806 7.75194,-0.80007 10.57208,-2.65515 11.3307,-7.45328 1.2894,-8.15521 2.65797,-11.09758 7.22126,-15.52556 3.83228,-3.71863 5.17118,-4.44163 8.47203,-4.57483 2.15623,-0.087 5.16572,0.48576 6.68777,1.27285 2.31634,1.19782 3.34155,1.24155 6.29044,0.26833 1.93769,-0.6395 4.71843,-0.93201 6.17941,-0.65005 3.77686,0.72891 10.83456,-2.52859 12.84228,-5.92738 2.96361,-5.017 4.73377,-3.6138 5.82577,4.61805 0.59068,4.45271 0.48018,4.74413 -3.39091,8.94378 -3.83099,4.15612 -3.92547,4.39863 -2.2174,5.69142 0.98125,0.74267 2.08567,1.36373 2.45424,1.38014 1.29284,0.0576 2.70899,3.86952 2.1232,5.71519 -1.23554,3.89284 -4.03794,4.66779 -13.1398,3.63356 -9.61581,-1.09262 -17.27545,-4.15169 -19.7139,-7.87325 -1.17304,-1.79028 -2.28289,-2.40194 -3.98752,-2.19759 -2.14923,0.25764 -2.55094,1.05519 -4.45826,8.85148 -1.15291,4.71259 -2.80539,9.6507 -3.67218,10.97359 -2.84498,4.34198 -8.59543,6.85522 -17.12649,7.48516 -4.25829,0.31444 -8.55195,1.00499 -9.54147,1.53458 -0.98953,0.52957 -2.47549,0.70332 -3.30214,0.38611 -1.30944,-0.50247 -1.43531,-2.11544 -0.97736,-12.52393 0.7981,-18.1392 1.56539,-40.51462 1.47944,-43.14259 -0.16973,-5.18982 -4.85264,-5.60621 -13.66616,-1.21514 -2.57812,1.28448 -8.27344,3.61956 -12.65625,5.1891 -4.38281,1.56953 -8.60156,3.39351 -9.375,4.05329 -0.77344,0.65977 -3.67911,2.09338 -6.45703,3.1858 -2.77793,1.09242 -5.9304,2.60232 -7.00548,3.35533 -1.07508,0.75301 -2.85861,1.36912 -3.96341,1.36912 -1.1048,0 -3.01483,0.78877 -4.24452,1.75282 -1.22969,0.96406 -3.64917,2.06156 -5.37663,2.43888 -1.72746,0.37733 -4.89152,1.83738 -7.03125,3.24458 -2.13973,1.40719 -6.45146,3.46882 -9.58163,4.58141 -6.08455,2.16271 -9.56976,3.95349 -19.94445,10.24793 -3.61193,2.19141 -7.63871,3.98438 -8.9484,3.98438 -1.42174,0 -2.78556,0.75551 -3.3847,1.875 -0.55191,1.03125 -1.93784,1.87722 -3.07986,1.87993 -1.14201,0.003 -3.16795,0.741 -4.50208,1.64063 -9.75282,6.57652 -11.73512,7.72944 -13.28982,7.72944 -0.96507,0 -4.15039,1.95153 -7.07847,4.33672 -2.92808,2.38521 -5.95823,4.55745 -6.73364,4.82721 -0.77543,0.26976 -2.28427,1.27461 -3.35298,2.23299 -1.06871,0.9584 -4.65465,3.12883 -7.96875,4.82319 -3.3141,1.69436 -8.43114,4.64423 -11.37122,6.55527 -2.94007,1.91104 -5.64244,3.47462 -6.00526,3.47462 -0.36282,0 -2.14227,1.13084 -3.95434,2.51297 -6.5833,5.02132 -19.19676,10.4132 -15.13008,6.46765 1.87428,-1.81844 28.31907,-18.29854 34.45428,-21.4715 2.72608,-1.40986 7.78858,-4.56332 11.25,-7.0077 3.46142,-2.44437 9.03568,-5.8877 12.38724,-7.65186 3.35156,-1.76415 9.67969,-5.31804 14.0625,-7.89752 4.38281,-2.57947 10.92187,-6.23573 14.53125,-8.12502 17.68709,-9.25808 25.2879,-13.07702 26.02707,-13.07702 0.44584,0 5.12361,-2.05972 10.39503,-4.57716 5.27142,-2.51744 12.94387,-5.9136 17.0499,-7.54702 4.10602,-1.63343 8.52019,-3.56795 9.80925,-4.29895 1.28906,-0.731 3.82031,-2.02091 5.625,-2.86647 1.80469,-0.84555 6.65625,-3.15356 10.78125,-5.1289 4.125,-1.97534 8.44922,-3.85676 9.60937,-4.18094 1.16016,-0.32418 2.10938,-1.19379 2.10938,-1.93249 0,-1.70073 0.3824,-1.75585 -6.94103,1.00068 -3.42473,1.28906 -6.89973,2.34375 -7.72223,2.34375 -0.82251,0 -2.88813,1.22278 -4.59028,2.71729 -1.77006,1.55413 -4.74863,2.99669 -6.95835,3.37002 -2.12494,0.35901 -6.06141,2.13433 -8.7477,3.94517 -5.18647,3.49621 -13.80398,8.04109 -17.30603,9.12719 -3.65692,1.13412 -2.46676,-1.92518 1.40625,-3.61478 1.93359,-0.84352 5.41406,-2.76404 7.73437,-4.2678 8.35845,-5.41699 23.16886,-13.5555 26.02967,-14.30361 1.3972,-0.36537 2.16737,-1.78386 2.95003,-5.43328 0.58255,-2.71634 0.85968,-5.13832 0.61583,-5.38216 -0.98413,-0.98413 -8.86853,3.16036 -10.42891,5.48202 -1.42785,2.12449 -6.67084,5.80748 -14.01037,9.84174 -1.03125,0.56683 -6.09375,3.56541 -11.25,6.66348 -5.15625,3.09808 -11.6521,6.7654 -14.43524,8.1496 -2.78313,1.3842 -6.72802,3.83764 -8.76642,5.45209 -2.03841,1.61444 -6.30036,4.14395 -9.47101,5.62111 -3.17065,1.47716 -6.81952,3.29907 -8.10858,4.04868 -1.28906,0.74961 -4.33038,2.359 -6.75847,3.57642 -2.4281,1.21742 -5.12125,2.80684 -5.98477,3.53203 -0.86352,0.7252 -3.16886,2.16229 -5.12298,3.19354 -9.95014,5.251 -13.66665,7.35426 -14.94628,8.45842 -0.77344,0.66738 -5.625,3.41124 -10.78125,6.09746 -5.15625,2.68622 -10.21875,5.60852 -11.25,6.494 -1.03125,0.88547 -3.5625,2.38013 -5.625,3.32145 -4.75264,2.1691 -7.92012,4.44716 -14.34392,10.31617 -8.91082,8.14126 -22.68733,22.3933 -22.68733,23.47046 0,2.15154 -5.27497,11.02602 -6.91429,11.63246 -4.1241,1.5256 -7.08321,-1.34575 -5.74196,-5.57167 0.32731,-1.03125 0.23229,-1.875 -0.21113,-1.875 -0.44343,0 -1.314,1.89844 -1.93458,4.21875 -1.58712,5.93406 -3.94804,5.76587 -3.94804,-0.28125 0,-2.475 0.48277,-4.98278 1.07285,-5.57285 1.62019,-1.62019 -0.62411,-6.30568 -6.17699,-12.8959 -2.60679,-3.09375 -5.03106,-5.84541 -5.38727,-6.1148 -0.35622,-0.26939 -4.57497,-4.15064 -9.375,-8.62501 -8.67878,-8.08994 -13.6466,-11.52935 -38.72734,-26.81246 -7.21875,-4.39879 -13.33594,-8.30239 -13.59375,-8.67467 -0.25781,-0.37227 -2.96637,-2.04669 -6.01902,-3.72093 -3.05265,-1.67423 -7.06046,-4.04502 -8.90625,-5.26841 -1.84579,-1.22339 -4.15357,-2.74396 -5.12839,-3.37904 -0.97483,-0.63507 -3.71702,-2.74463 -6.09375,-4.68791 -2.37674,-1.94328 -7.4854,-5.64223 -11.35259,-8.2199 -11.52818,-7.68409 -12.35843,-8.31851 -24.47217,-18.7002 -3.92063,-3.36004 -8.7421,-7.37479 -10.71437,-8.92167 -1.97228,-1.54687 -7.18077,-6.08203 -11.57442,-10.07812 -7.99237,-7.269174 -10.28864,-8.703371 -9.00612,-5.625005 0.37593,0.902345 1.09149,3.539065 1.59012,5.859375 0.9937,4.62413 6.45393,10.75502 12.15977,13.65329 1.71102,0.86911 4.79844,2.92956 6.86094,4.57877 2.0625,1.64921 6.70312,4.97396 10.3125,7.38832 11.65203,7.79423 23.25515,16.47809 31.07016,23.25312 4.19795,3.63932 8.89801,7.38647 10.44458,8.32698 1.54656,0.94053 3.10988,2.19214 3.47404,2.78136 0.36416,0.58923 1.57035,1.45988 2.68041,1.93478 2.32721,0.9956 5.8088,3.15604 16.17005,10.03401 4.07592,2.70566 7.91714,4.92051 8.53605,4.92188 0.61891,9.3e-4 1.46266,0.53996 1.875,1.19687 0.90184,1.43674 4.72672,3.95144 11.06221,7.27295 2.57812,1.35163 6.375,3.43181 8.4375,4.62264 2.0625,1.19081 6.40785,3.60545 9.65633,5.36585 7.09451,3.84462 9.30554,5.58488 16.43737,12.93745 9.31762,9.60601 9.96935,10.71697 10.23319,17.4436 0.21418,5.46042 0.0651,6.00688 -1.63939,6.00688 -1.43798,0 -1.94453,-0.72444 -2.17334,-3.10811 -0.16409,-1.70947 0.16441,-3.6657 0.72999,-4.34719 0.78629,-0.94742 0.35229,-1.80792 -1.8439,-3.65588 l -2.87224,-2.41683 -1.92639,1.92639 -1.9264,1.9264 1.87929,2.02511 c 1.0336,1.11381 2.16908,3.99548 2.52328,6.40372 0.76714,5.21579 2.75093,7.56907 8.64354,10.25347 3.51686,1.60211 5.56205,1.90528 10.29184,1.52562 8.30264,-0.66646 11.86916,-3.47154 13.01677,-10.23777 0.81337,-4.79561 1.07355,-5.1346 6.93881,-9.04074 3.35156,-2.23206 7.83577,-4.97425 9.96489,-6.09375 2.12913,-1.11949 6.76976,-3.98466 10.3125,-6.36704 3.54275,-2.38237 9.95135,-6.27265 14.24133,-8.64505 4.28999,-2.3724 9.35249,-5.53065 11.25,-7.01834 1.89752,-1.48769 5.13753,-3.47122 7.20003,-4.40783 2.0625,-0.93662 5.66608,-3.07796 8.00796,-4.75852 3.68607,-2.64518 34.69711,-18.18241 36.29059,-18.18241 1.26201,0 9.24594,-4.23117 10.93247,-5.79378 0.98645,-0.91395 3.30676,-2.15553 5.15625,-2.75904 1.8495,-0.60353 6.08828,-2.51198 9.4195,-4.241 3.33122,-1.72902 6.41927,-3.14368 6.86234,-3.14368 0.44306,0 2.64509,-1.26563 4.89339,-2.8125 2.2483,-1.54688 4.45531,-2.8125 4.90445,-2.8125 0.44913,0 4.80281,-2.03523 9.67483,-4.52273 4.87202,-2.48751 11.38947,-5.48596 14.48322,-6.66323 10.88154,-4.14077 19.70287,-7.95862 21.16757,-9.16127 0.81404,-0.6684 3.02888,-1.21527 4.92187,-1.21527 4.72925,0 4.6179,2.38479 -0.14691,3.14672 -1.97381,0.31563 -6.08709,1.84076 -9.14063,3.38919 -3.05355,1.54843 -6.02657,2.82069 -6.60674,2.82721 -1.22837,0.0139 -13.58246,5.79951 -17.69516,8.28701 -3.28806,1.98872 -9.90187,5.34848 -17.8125,9.04855 -7.20467,3.36987 -7.5036,3.51841 -25.3125,12.57709 -8.25,4.19643 -15.94922,7.623 -17.10937,7.61456 -1.16016,-0.008 -2.10938,0.31061 -2.10938,0.70898 0,0.80103 -2.47022,2.13576 -13.59375,7.34503 -6.23315,2.91906 -18.84562,10.33721 -22.5,13.23358 -2.46328,1.95236 -6.14319,4.00958 -7.17222,4.00958 -0.62944,0 -2.01537,0.81597 -3.07986,1.81327 -1.06448,0.99731 -4.99401,3.3234 -8.7323,5.1691 -3.73828,1.8457 -6.79687,3.67336 -6.79687,4.06145 0,0.38809 -2.42578,2.1283 -5.39063,3.86713 -2.96484,1.73882 -7.30238,4.73792 -9.63897,6.66466 -2.33658,1.92674 -6.77852,4.78038 -9.87095,6.34144 -3.09245,1.56106 -6.15196,3.82849 -6.79893,5.03875 -1.43117,2.67721 -2.21576,10.07933 -2.51875,23.76295 -0.12559,5.67187 -0.49934,19.59375 -0.83057,30.9375 -0.47927,16.41409 -0.67589,99.27043 -0.27586,116.25 0.0486,2.0625 -0.25342,11.76562 -0.67114,21.5625 -0.88549,20.76789 -0.81082,40.94583 0.26445,71.45496 0.12506,3.54831 1.41994,3.41472 6.7167,-0.693 1.831,-1.41998 6.26069,-4.10883 9.84375,-5.97523 3.58306,-1.86641 7.14746,-3.803 7.9209,-4.30356 0.77344,-0.50055 5.64549,-2.94544 10.82679,-5.43309 5.1813,-2.48764 10.44314,-5.23923 11.69298,-6.11466 1.24984,-0.87542 2.82046,-1.59167 3.49029,-1.59167 1.60203,0 17.38013,-9.96793 21.70151,-13.7101 1.8602,-1.61086 6.75718,-4.73669 10.88218,-6.94629 4.125,-2.20959 8.61982,-4.79395 9.98847,-5.74302 1.36866,-0.94908 2.91183,-1.72559 3.42927,-1.72559 0.9079,0 11.11729,-9.69519 16.28916,-15.46875 5.46392,-6.09958 8.60479,-7.41467 15.80707,-6.61847 3.40545,0.37647 6.48069,0.12792 8.90625,-0.71982 2.03762,-0.71217 6.38033,-1.59258 9.65044,-1.95647 6.01621,-0.66947 8.28371,-1.42605 18.42934,-6.14913 3.09375,-1.44023 7.58182,-3.52641 9.97347,-4.63595 2.56608,-1.19046 5.33256,-3.44486 6.74934,-5.50001 2.56899,-3.72654 4.80062,-11.79192 3.90706,-14.12054 -0.29858,-0.77807 -0.10683,-7.35128 0.4261,-14.60714 2.84043,-38.67245 3.83311,-61.08033 4.33256,-97.79917 l 0.55149,-40.54422 -3.85683,-3.46234 c -3.21746,-2.88837 -3.8402,-4.0156 -3.75647,-6.79955 0.0552,-1.83546 -0.38854,-6.19267 -0.98608,-9.6827 -1.03196,-6.02727 -0.95739,-6.67444 1.48685,-12.9044 3.80441,-9.69678 14.90374,-20.18578 19.49572,-18.42368 2.68341,1.02972 5.27054,9.57627 5.27054,17.41116 0,3.21995 0.42913,6.65628 0.95362,7.6363 0.52449,0.98002 0.6817,3.48233 0.34935,5.56069 -0.69373,4.33835 -3.84688,6.83247 -10.53868,8.33601 -3.87366,0.87036 -7.63929,3.31947 -7.63929,4.96848 0,0.90884 6.9288,1.04526 10.08838,0.19862 1.27165,-0.34074 2.35491,-1.55456 2.70774,-3.03407 0.85973,-3.60507 1.29313,-4.07973 2.67664,-2.93152 0.90067,0.74749 1.01468,1.82914 0.41368,3.9247 -1.19623,4.171 -3.52328,6.33422 -7.49759,6.96974 -3.47463,0.55562 -3.48395,0.56954 -4.22658,6.31391 -0.40936,3.16639 -0.82256,17.14769 -0.91823,31.06957 -0.0957,13.92187 -0.49051,33.43839 -0.87742,43.37005 -0.79197,20.32892 -0.66166,20.8487 5.22656,20.8487 4.32486,0 7.05748,-3.15394 6.08605,-7.02442 -0.70065,-2.79163 -3.36673,-3.16824 -3.36673,-0.47558 0,2.6579 -3.37323,2.4649 -4.0966,-0.23438 -2.53981,-9.47724 2.95065,-18.09792 12.69016,-19.92506 3.59959,-0.67529 10.31703,1.57003 13.13863,4.39163 2.1273,2.1273 2.42041,2.1197 6.15843,-0.15941 2.49132,-1.51899 3.04688,-2.44845 3.04688,-5.09742 0,-1.78184 0.44586,-3.51526 0.99079,-3.85204 1.85072,-1.14381 5.53214,0.47582 5.96735,2.62533 1.45886,7.20509 1.30743,6.98422 5.21664,7.60932 3.28059,0.52459 3.76272,0.91618 3.76272,3.05609 0,2.7832 -6.21229,9.85122 -10.78125,12.26635 -5.44272,2.87699 -11.76347,4.02282 -16.12825,2.92376 -2.2154,-0.55784 -4.028,-1.35067 -4.028,-1.76185 0,-0.41118 -1.67672,-2.54571 -3.72603,-4.7434 -4.12683,-4.42562 -3.82639,-6.47392 0.94955,-6.47392 1.93319,0 3.39267,0.97693 5.57396,3.73103 5.23361,6.60798 13.1507,6.95229 18.75564,0.81567 3.71004,-4.06197 3.64606,-5.5557 -0.225,-5.2534 -2.5397,0.19834 -3.01907,-0.0719 -2.87988,-1.62337 0.26545,-2.95881 -1.54412,-3.25818 -5.10161,-0.844 -4.37883,2.97155 -9.2264,2.93263 -13.34663,-0.10718 -3.8736,-2.85785 -4.68024,-2.89454 -7.42463,-0.33775 -1.74277,1.62363 -2.04945,2.64522 -1.60896,5.35963 0.29931,1.8445 1.49594,4.63321 2.65915,6.19713 2.89732,3.89537 2.72549,12.87557 -0.3655,19.10361 l -2.16631,4.36488 -7.03125,0.69713 c -3.86719,0.38341 -7.50566,0.8772 -8.0855,1.0973 -1.30324,0.49472 -2.12637,5.8255 -2.69048,17.42432 -0.5046,10.37522 -0.20217,11.81717 2.62745,12.52735 1.15323,0.28945 3.77484,2.50401 5.82578,4.92125 2.05095,2.41725 5.09888,5.91378 6.77318,7.77007 1.6743,1.85629 4.91835,7.17195 7.209,11.81258 3.66421,7.42334 4.24007,9.45166 4.79097,16.875 0.34439,4.64062 1.16974,9.49219 1.83412,10.78125 1.32832,2.57725 1.66335,5.0194 1.50675,10.983 -0.0786,2.99295 -0.80973,4.7558 -3.01339,7.26562 -1.60029,1.82264 -3.73061,3.31388 -4.73405,3.31388 -5.36742,0 -9.23133,4.67927 -9.23133,11.17932 0,1.9751 -0.57871,4.07139 -1.28603,4.6584 -0.7073,0.58702 -1.5358,2.60656 -1.84109,4.48789 -0.53741,3.31162 -1.69743,4.62699 -14.77392,16.75245 -1.5469,1.4344 -9.51882,3.79917 -14.44271,4.28425 -2.87352,0.28309 -10.49633,-1.55471 -12.19015,-2.93896 -0.51709,-0.42258 -1.71947,-0.19848 -2.67196,0.498 -1.24697,0.91182 -3.52183,1.11626 -8.12581,0.73028 -3.51671,-0.29484 -10.96276,-0.0478 -16.54679,0.54886 -5.58403,0.59671 -12.4731,1.24133 -15.30904,1.43251 -9.95617,0.67117 -12.01317,1.43244 -15.55734,5.75764 -5.82991,7.11463 -12.93,9.33981 -22.8246,7.15323 -2.28975,-0.506 -4.65658,-1.59475 -5.2596,-2.41943 -0.60303,-0.82469 -2.20202,-1.49944 -3.55333,-1.49944 -1.91832,0 -2.58075,-0.56516 -3.02182,-2.57813 -1.06382,-4.85508 -3.6092,-8.73774 -6.03331,-9.2031 -1.28906,-0.24745 -4.26357,-0.87941 -6.61002,-1.40434 -2.34645,-0.52494 -9.72926,-1.02069 -16.40625,-1.10169 -10.05023,-0.12191 -12.86619,0.1594 -16.35873,1.63417 -3.51743,1.48528 -11.42226,6.35753 -16.72603,10.30934 -2.84118,2.11694 -8.58647,8.10725 -8.58647,8.95266 0,1.53917 -5.2689,6.51609 -6.89837,6.51609 -0.84652,0 -1.53913,0.42187 -1.53913,0.9375 0,0.51562 -0.63854,0.9375 -1.41897,0.9375 -1.38195,0 -5.14046,1.78915 -6.08103,2.89474 -0.25781,0.30304 -1.3125,0.78252 -2.34375,1.0655 -1.03125,0.283 -2.51969,0.78255 -3.30763,1.11013 -0.78795,0.32759 -1.84264,0.21548 -2.34375,-0.24913 z m 11.33125,-9.97348 c 6.91089,-3.27949 8.85138,-5.21939 8.85138,-8.84863 0,-1.42065 -0.60107,-1.93663 -2.25598,-1.93663 -1.82228,0 -2.1581,-0.37433 -1.7468,-1.94712 0.28005,-1.07092 1.29524,-2.43802 2.25598,-3.03801 1.12895,-0.70504 1.7468,-2.18165 1.7468,-4.17469 l 0,-3.08381 -2.65579,1.96351 c -1.9087,1.41116 -4.61186,2.10792 -9.60937,2.47688 -6.18158,0.45638 -7.23982,0.28599 -9.53172,-1.53474 -4.71634,-3.74675 -2.74634,-6.16729 2.70534,-3.32404 1.47691,0.77025 4.70554,1.40307 7.17471,1.40625 3.9317,0.005 4.97922,-0.45109 8.4319,-3.67171 4.25268,-3.96687 4.15352,-6.11302 -0.1646,-3.56225 -3.75208,2.21641 -12.47085,3.09228 -16.04495,1.61183 -2.75415,-1.1408 -4.68052,-3.42933 -4.68052,-5.56047 0,-1.58856 3.56825,-1.15742 4.52173,0.54637 0.6851,1.22419 2.16156,1.50982 7.10186,1.37391 7.4405,-0.2047 10.38343,-1.18404 11.86242,-3.94755 0.70039,-1.30869 1.17527,-8.22178 1.30718,-19.02925 0.11395,-9.33563 0.55503,-25.30589 0.98018,-35.48949 0.66793,-15.9991 0.58607,-18.51562 -0.60225,-18.51562 -0.75639,0 -2.19417,0.6194 -3.19506,1.37644 -2.54373,1.92397 -15.50452,1.92198 -19.22696,-0.003 -2.20361,-1.13954 -2.87805,-1.18831 -3.2405,-0.23438 -0.49624,1.30606 -0.99778,18.64572 -0.78055,26.98591 0.0739,2.83594 -9.3e-4,17.97674 -0.16619,33.64624 -0.28127,26.6672 -0.1849,28.70566 1.50632,31.86111 2.16743,4.04395 2.1854,4.29265 0.4365,6.04153 -1.5427,1.54271 -0.75162,5.72255 1.82823,9.65989 2.01809,3.08001 4.9882,2.84393 13.19071,-1.04851 z m -12.34399,-7.43075 c -0.64606,-1.6836 1.19934,-5.22951 2.72159,-5.22951 0.63127,0 1.72121,0.91824 2.42209,2.04054 1.11424,1.78418 1.06117,2.19643 -0.42242,3.28125 -2.20672,1.6136 -4.0807,1.57697 -4.72126,-0.0923 z m 9.03768,-0.77639 c 0.0164,-1.16015 0.63603,-2.91025 1.37696,-3.8891 1.11388,-1.4716 1.59569,-1.57345 2.78267,-0.58834 2.74464,2.27785 1.10791,6.58682 -2.50194,6.58682 -1.13383,0 -1.67772,-0.69208 -1.65769,-2.10938 z m -21.68499,-3.14198 c 1.05512,-1.34136 2.13217,-3.76715 2.39345,-5.39062 0.59117,-3.67324 1.43631,-67.84663 1.68713,-128.10802 0.18388,-44.1786 -0.60921,-98.66822 -1.65808,-113.91913 -0.38741,-5.63313 -0.18683,-7.96401 0.80169,-9.31589 1.29998,-1.77781 1.32545,-1.77763 1.82408,0.0129 0.95907,3.4439 2.42013,11.19574 2.46266,13.06588 0.17319,7.61741 0.0286,11.04632 -0.50208,11.90494 -0.35617,0.57631 -0.0669,0.79955 0.6877,0.53085 0.71631,-0.25503 3.98933,0.53398 7.27337,1.75337 7.6422,2.83762 11.61369,2.80347 16.64162,-0.1431 3.18866,-1.86867 4.15741,-3.05351 4.65193,-5.68954 0.51583,-2.74953 0.27778,-3.57229 -1.36684,-4.72424 -2.4095,-1.68766 -2.61302,-5.61031 -0.41699,-8.0369 0.94803,-1.04756 1.65841,-3.60851 1.78548,-6.43671 0.23448,-5.21895 0.29217,-5.20035 -7.10994,-2.29211 -14.82967,5.82648 -26.72171,0.63136 -28.6963,-12.53617 -0.79268,-5.28594 -3.01657,-8.42252 -8.68368,-12.24747 -2.38632,-1.61061 -6.23721,-4.38884 -8.55752,-6.17382 -2.32031,-1.78499 -5.17406,-3.66085 -6.34166,-4.16858 -1.1676,-0.50775 -3.27698,-1.70694 -4.6875,-2.66489 C 230.1633,204.57716 226.97743,202.5 226.51954,202.5 c -0.50652,0 -9.22775,-5.97551 -19.5488,-13.39423 -2.71672,-1.95276 -6.41605,-4.5887 -8.22074,-5.85763 -1.80469,-1.26895 -6.44531,-4.84859 -10.3125,-7.95477 -6.75458,-5.42538 -21.98706,-15.85546 -32.8125,-22.4676 -2.83594,-1.73218 -6.42188,-4.28861 -7.96875,-5.68095 -1.54688,-1.39236 -5.13281,-4.06535 -7.96875,-5.94 -2.83594,-1.87465 -6.42188,-4.43477 -7.96875,-5.68919 -5.89535,-4.7807 -11.37967,-9.01539 -14.81666,-11.44062 l -3.56666,-2.51672 -3.99185,4.14273 c -5.21857,5.41581 -8.75577,8.26053 -12.479177,10.0361 -1.667587,0.79521 -3.215744,1.92473 -3.440348,2.51004 -0.224604,0.58531 0.0083,3.99649 0.517514,7.58039 0.50924,3.58392 0.88815,8.62557 0.842015,11.2037 -0.09281,5.18469 2.240682,22.95151 3.876394,29.51465 0.677025,2.71653 2.454772,5.70685 5.028442,8.45833 7.67915,8.20962 6.11526,12.8516 -4.379486,12.99934 -6.648019,0.0936 -8.635511,1.19664 -6.322929,3.50922 0.935117,0.93513 3.823489,1.68595 7.674955,1.99511 5.45195,0.43763 6.2522,0.28862 6.82955,-1.27172 0.92417,-2.49767 2.29591,-3.18671 4.25585,-2.13778 1.88912,1.01103 2.19128,3.77785 0.71401,6.53815 -0.63283,1.18245 -0.66177,2.38932 -0.0821,3.42504 0.6263,1.11915 0.42712,2.45225 -0.6635,4.4407 -0.86631,1.57948 -1.55847,4.92332 -1.55847,7.52896 0,4.65464 -0.0318,4.70392 -4.52878,7.03125 -2.49083,1.28906 -4.87108,2.97656 -5.28945,3.75 -0.418372,0.77344 -0.1022,15.11719 0.70261,31.875 2.22317,46.29139 1.83843,99.72126 -0.78985,109.6875 -0.475929,1.80469 -0.867682,7.36963 -0.870551,12.36654 -0.0028,5.0396 -0.4227,9.34332 -0.942731,9.66471 -1.482572,0.91627 -1.093762,3.78673 0.737381,5.44389 0.921191,0.83367 4.190721,2.13577 7.265621,2.89356 12.78838,3.15163 15.86806,4.76036 15.2157,7.94822 -0.25838,1.26262 -1.48319,1.49431 -7.07807,1.33887 -5.10323,-0.14178 -6.76563,0.11883 -6.76563,1.0606 0,0.68671 -1.44395,2.34992 -3.20877,3.69602 -1.76483,1.34609 -4.796038,5.08757 -6.736016,8.31439 -1.939978,3.22683 -4.503844,7.1724 -5.697476,8.76794 C 90.976608,447.46529 90,449.25826 90,449.85412 c 0,1.2584 -1.535428,1.45377 -2.256461,0.28711 -0.270665,-0.43794 0.970062,-3.84732 2.757171,-7.57638 1.78711,-3.72908 3.24929,-7.31319 3.24929,-7.96469 0,-0.65151 0.905512,-1.98823 2.01225,-2.97048 2.431613,-2.15814 7.36275,-8.78545 7.36275,-9.89534 0,-0.43827 -0.95059,-0.79684 -2.11242,-0.79684 -2.672524,0 -7.247411,-4.76918 -7.342453,-7.65428 -0.03967,-1.20421 0.376451,-5.98635 0.92472,-10.62697 C 95.961713,391.08678 95.939006,375 94.555809,375 c -1.665071,0 -9.243309,3.98889 -9.243309,4.86532 0,0.43064 -2.425781,2.33262 -5.390625,4.22663 -2.964844,1.89401 -5.948103,3.99815 -6.629465,4.67586 C 72.611049,389.44552 71.512314,390 70.850779,390 69.501888,390 58.125,402.43628 58.125,403.91078 c 0,0.51995 -0.998081,2.13789 -2.217958,3.59541 -2.662489,3.18119 -7.157042,11.87075 -7.157042,13.83709 0,1.39176 -0.56745,2.88405 -4.766127,12.53394 -2.039447,4.6873 -2.103493,5.4363 -1.122299,13.125 1.136942,8.90917 2.129758,11.38612 6.6083,16.4869 2.489617,2.83552 3.585744,3.38588 6.743469,3.38588 3.57383,0 3.916475,0.25843 6.565081,4.9515 5.874105,10.40834 9.861757,12.11374 22.247428,9.51453 l 7.802793,-1.63747 -0.12797,-5.90157 c -0.09398,-4.33429 0.339572,-6.63465 1.632553,-8.66197 2.506416,-3.92992 13.846132,-12.76411 20.779612,-16.18834 l 5.89409,-2.9109 -0.577,-5.75477 c -0.31735,-3.16511 -0.73705,-6.27022 -0.93266,-6.90022 -1.41682,-4.5632 5.96044,-11.29401 17.06429,-15.56897 7.09648,-2.73213 9.91772,-1.86801 18.16404,5.56348 7.56618,6.81856 12.00404,12.53352 12.79197,16.47319 0.62247,3.11236 7.71434,11.07593 9.87963,11.09399 0.65811,0.006 5.4153,2.95901 10.57155,6.56337 5.15625,3.60436 10.94776,7.24615 12.87002,8.09288 1.92225,0.84672 3.74522,2.32781 4.05102,3.29132 0.3058,0.96351 3.37367,3.64474 6.81748,5.95829 3.44381,2.31356 8.75065,5.91834 11.79296,8.01062 3.04232,2.09228 7.1556,4.63271 9.14063,5.6454 1.98502,1.01269 3.60914,2.21287 3.60914,2.66709 0,0.73025 5.46928,4.56207 7.96875,5.58297 0.51562,0.21061 2.20135,1.272 3.74607,2.35862 1.54471,1.08664 4.2869,2.76686 6.09375,3.73382 1.80685,0.96697 3.49612,2.0658 3.75393,2.44185 0.79226,1.15563 6.00263,3.69154 7.66633,3.73125 0.86492,0.0206 2.43586,-1.05994 3.49099,-2.40132 z M 85.276958,472.46446 c -1.364805,-1.3648 -1.706337,-2.55867 -1.267837,-4.43186 0.887099,-3.78953 3.269224,-8.6576 4.236479,-8.6576 0.464453,0 1.610527,-1.2597 2.54683,-2.79933 0.936304,-1.53963 3.355886,-4.01942 5.376845,-5.51064 2.020959,-1.49123 4.550655,-3.55492 5.621545,-4.58598 2.76245,-2.65973 6.02168,-3.57903 6.02168,-1.69848 0,1.48345 -1.25495,2.82038 -6.6594,7.09443 -1.629994,1.28906 -5.054803,4.43567 -7.610697,6.99247 -4.642978,4.64461 -4.64654,4.65297 -4.042324,9.48896 0.705048,5.64301 -1.014984,7.31616 -4.223121,4.10803 z m -11.67575,-0.30278 c -3.95502,-1.18762 -5.469998,-3.8058 -2.63098,-4.54684 2.811151,-0.73377 8.248522,1.56315 8.248522,3.48443 0,2.2276 -1.065923,2.4292 -5.617542,1.06241 z m 4.341972,-10.91044 c -3.856468,-0.91112 -6.204614,-3.1041 -5.444551,-5.0848 1.317585,-3.43356 10.938871,0.36817 10.938871,4.32237 0,1.8255 -0.626598,1.91245 -5.49432,0.76243 z m 0.103695,-15.96795 c -1.160156,-0.46633 -2.109375,-1.19896 -2.109375,-1.62808 0,-1.37778 2.196113,-3.03021 4.027226,-3.03021 2.421722,0 7.222774,2.9386 7.222774,4.42088 0,1.40234 -5.863559,1.55462 -9.140625,0.23741 z M 83.4375,433.125 c 0,-2.14676 3.550949,-2.63655 5.4375,-0.75 1.886002,1.88601 1.278967,2.625 -2.15625,2.625 -2.65625,0 -3.28125,-0.35714 -3.28125,-1.875 z m 4.6875,-6.86868 c 0,-1.65024 2.265772,-2.65728 4.258373,-1.89264 2.163146,0.83008 1.101103,2.62639 -1.752547,2.96421 -1.706951,0.20208 -2.505826,-0.13954 -2.505826,-1.07157 z m 27.45098,-14.9282 c -2.3573,-3.05716 -6.6466,-11.81693 -7.17497,-14.65301 -0.32469,-1.74274 -2.06649,-4.80256 -3.87068,-6.79957 -1.80418,-1.99702 -3.28033,-4.21089 -3.28033,-4.9197 0,-2.16482 2.47862,-3.638 4.39518,-2.61229 2.52472,1.3512 15.82877,28.37001 14.58285,29.61592 -0.95339,0.9534 -3.71956,0.57799 -4.65205,-0.63135 z M 286.58365,266.98588 c -1.18081,-1.68514 -1.68247,-1.87462 -2.35149,-0.88823 -0.46775,0.68964 -1.85743,1.11152 -3.08818,0.9375 -1.7784,-0.25145 -2.29986,-0.96628 -2.54039,-3.48249 -0.16647,-1.74134 0.0927,-3.56143 0.57589,-4.04464 1.10687,-1.10687 3.93743,1.57789 3.96637,3.76207 0.0161,1.21592 0.43341,1.04085 1.83563,-0.77009 2.43573,-3.14569 5.17477,-1.64428 5.17477,2.83655 0,3.79757 -1.56198,4.51868 -3.5726,1.64933 z m 8.73896,-0.25495 c -1.25211,-1.50869 -0.56524,-6.10593 0.91227,-6.10593 1.45061,0 2.97649,3.67906 2.34763,5.66041 -0.69759,2.19793 -1.69267,2.33392 -3.2599,0.44552 z m 107.08458,240.27998 c 2.13575,-0.63988 4.37159,-2.13628 5.25287,-3.51562 0.84391,-1.32085 2.07702,-2.96885 2.74027,-3.66223 0.66323,-0.69339 1.80938,-2.42773 2.54699,-3.85412 1.30343,-2.52056 8.34466,-8.96016 15.953,-14.58993 2.05922,-1.52372 5.60129,-4.67443 7.87124,-7.00158 4.73992,-4.85937 14.16594,-22.1815 14.16594,-26.03267 0,-4.34763 -1.70758,-8.85821 -4.43466,-11.71417 -2.23063,-2.33605 -14.33996,-9.14059 -16.26655,-9.14059 -1.0374,0 -11.28224,10.51655 -10.75675,11.04203 0.25925,0.25927 2.27539,-1.28701 4.48029,-3.43617 2.48206,-2.41931 4.71939,-3.80845 5.87434,-3.64733 4.00138,0.55819 2.0691,4.92559 -5.05161,11.41777 -1.7524,1.59772 -4.70553,4.56927 -6.5625,6.60343 -1.85697,2.03415 -4.25187,4.5654 -5.32199,5.625 -1.07013,1.05959 -2.49604,3.93043 -3.16871,6.37964 -0.67268,2.44922 -1.54435,4.45313 -1.93706,4.45313 -0.39272,0 -1.00287,1.16016 -1.35589,2.57812 -0.86776,3.48551 -6.12269,11.22037 -10.34997,15.23438 -4.17245,3.96194 -5.3986,6.72466 -5.25291,11.83573 0.13739,4.8199 -1.45094,6.4085 -5.04224,5.04309 -2.43968,-0.92757 -2.53056,-1.18547 -1.90683,-5.41078 0.94692,-6.41455 4.68845,-12.63602 10.79157,-17.94435 4.65255,-4.04666 5.7187,-5.65104 8.29987,-12.48995 1.62888,-4.31578 2.9616,-8.31853 2.9616,-8.895 0,-0.57648 1.89386,-3.26685 4.20858,-5.97861 2.31471,-2.71176 4.04979,-5.08926 3.85573,-5.28333 -1.60647,-1.60646 -13.93229,10.55516 -16.84763,16.6232 -0.86705,1.80469 -4.1334,5.98955 -7.25855,9.29969 -6.0103,6.36607 -7.35016,6.48843 -7.38128,0.6741 -0.0139,-2.58914 -0.13665,-2.65976 -3.52997,-2.03005 -1.9336,0.35883 -4.18166,1.24953 -4.9957,1.97933 -0.81404,0.72982 -2.07966,1.33089 -2.8125,1.33572 -2.20161,0.0145 -11.17618,5.55893 -11.17618,6.90453 0,1.54326 4.22239,6.21168 5.61819,6.21168 0.56114,0 2.26779,-0.92236 3.79258,-2.04968 2.67292,-1.97618 2.89009,-1.99353 6.05579,-0.48392 3.01842,1.43939 3.28344,1.89882 3.28344,5.69203 0,2.26944 0.71775,6.34865 1.59501,9.06491 1.50594,4.66287 1.91167,5.0853 7.26562,7.56464 6.3024,2.91854 9.30609,3.24293 14.79656,1.59793 z m 15.47784,-26.62588 c -1.11783,-1.11784 1.1811,-4.13503 3.15065,-4.13503 1.44163,0 1.83409,0.51495 1.60765,2.10937 -0.29235,2.0585 -3.40175,3.3822 -4.7583,2.02566 z m -1.91512,-6.60262 c -1.27509,-1.2751 -0.63566,-4.04058 1.15596,-4.99943 2.72871,-1.46036 3.01879,-1.23803 2.69915,2.06872 -0.28016,2.89833 -2.32953,4.45629 -3.85511,2.93071 z m -2.53241,-10.0848 c 0,-0.71631 0.81381,-2.29834 1.80846,-3.51563 1.42981,-1.74984 2.0526,-1.97319 2.97456,-1.06679 0.89852,0.88336 0.9184,1.69013 0.0866,3.51563 -1.1484,2.52046 -4.86967,3.33568 -4.86967,1.06679 z m -234.96814,41.1366 c 2.21727,-2.21728 1.99799,-9.52487 -0.40403,-13.46485 -2.0027,-3.28498 -1.85903,-5.74436 0.33558,-5.74436 1.82883,0 5.10359,3.78953 5.84032,6.75842 1.71798,6.92304 6.437,3.68606 7.27576,-4.99076 0.44614,-4.61524 0.20121,-5.72407 -1.98847,-9.00193 -1.3735,-2.05608 -3.7629,-4.83396 -5.30977,-6.17306 -2.77071,-2.39854 -2.78938,-2.47615 -1.25655,-5.22337 1.83986,-3.29752 1.46932,-3.8693 -2.50752,-3.8693 -2.44079,0 -3.86045,-0.97365 -7.8125,-5.35807 -2.65632,-2.94694 -4.82968,-5.94464 -4.82968,-6.66154 0,-0.71691 -1.04359,-2.54371 -2.31909,-4.05956 -1.2755,-1.51585 -2.74896,-4.35246 -3.27434,-6.3036 -0.89021,-3.30597 -3.61248,-6.8421 -11.7246,-15.22981 -4.63357,-4.79099 -9.43691,-5.46526 -16.01306,-2.24785 -8.92756,4.36785 -9.79817,5.44128 -9.7633,12.03785 0.0172,3.24666 0.82757,8.05696 1.84439,10.94758 0.99758,2.83594 1.82756,6.51532 1.84439,8.1764 0.0622,6.13628 7.03481,18.13229 11.33207,19.49618 1.01425,0.32191 2.48313,1.82103 3.26415,3.33136 0.78102,1.51033 2.0113,2.74606 2.73397,2.74606 2.49298,0 6.97761,6.72924 8.08447,12.13086 1.54023,7.51653 3.30023,11.30165 5.27123,11.33645 0.92866,0.0164 2.37825,0.5548 3.22133,1.19643 0.84307,0.64163 4.4785,1.28687 8.07874,1.43386 5.0637,0.20673 6.89247,-0.0793 8.07651,-1.26339 z m -8.56158,-23.68139 c -1.46129,-1.42845 -3.36857,-4.37588 -4.23842,-6.54984 -0.86985,-2.17397 -2.45802,-4.82914 -3.52925,-5.90037 -1.65769,-1.65769 -1.90856,-2.90647 -1.68483,-8.38658 0.20394,-4.99526 -0.0923,-6.83142 -1.32152,-8.18963 -0.87141,-0.96291 -2.23396,-3.59181 -3.02788,-5.842 -0.79391,-2.2502 -1.87173,-4.60727 -2.39513,-5.23795 -1.48206,-1.78577 -5.57745,-10.13657 -5.58182,-11.38174 -0.007,-2.07548 1.74907,-2.21726 3.54794,-0.2864 0.98375,1.05594 3.62841,5.60045 5.87701,10.09892 2.2486,4.49846 4.89249,9.36714 5.87533,10.81928 1.10929,1.639 1.891,4.66101 2.06131,7.96875 0.18021,3.50025 1.10811,6.91091 2.70441,9.9405 1.33654,2.53661 2.43007,5.10554 2.43007,5.70874 0,0.6032 1.47656,2.44037 3.28125,4.0826 3.63788,3.3104 3.99533,4.34077 1.79832,5.18385 -2.39351,0.91847 -2.99928,0.70653 -5.79679,-2.02813 z M 142.03125,469.6875 c 0.31868,-0.51563 0.97639,-0.9375 1.46158,-0.9375 0.48519,0 0.88217,0.42187 0.88217,0.9375 0,0.51562 -0.65771,0.9375 -1.46158,0.9375 -0.80387,0 -1.20085,-0.42188 -0.88217,-0.9375 z m 5.65708,-3.69809 c -0.90493,-1.46421 0.28572,-2.86441 2.43574,-2.86441 1.2891,0 1.7888,0.51726 1.57453,1.62986 -0.35975,1.86801 -3.09783,2.71091 -4.01027,1.23455 z m 6.20229,-6.56754 c 0.20625,-0.61875 0.68086,-1.09335 1.05469,-1.05468 1.12097,0.11596 0.90388,1.40183 -0.30468,1.80468 -0.61875,0.20626 -0.95625,-0.13124 -0.75001,-0.75 z m 338.27471,33.06311 c 3.03398,-1.94291 8.48655,-7.52162 10.62423,-10.87002 3.14214,-4.92178 5.59072,-14.76442 4.9754,-19.99979 -0.70655,-6.01172 -0.10919,-6.54062 8.09418,-7.16646 3.48034,-0.26552 7.35774,-1.15755 8.61645,-1.98229 2.12213,-1.39046 2.25437,-1.92672 1.81842,-7.3736 -0.25858,-3.23073 -0.86409,-7.35063 -1.3456,-9.15532 -0.4815,-1.80469 -0.88238,-4.75781 -0.89083,-6.5625 -0.0348,-7.43375 -7.87213,-24.43997 -13.82547,-30 -1.93235,-1.80469 -4.62239,-4.70811 -5.97788,-6.45204 l -2.46453,-3.17081 -1.02643,3.17081 c -0.60463,1.86779 -0.82669,6.6381 -0.54037,11.60829 0.35142,6.10013 0.0448,10.32585 -1.10684,15.25409 -1.39069,5.95122 -2.18194,7.415 -6.23272,11.53017 -4.53594,4.60806 -6.91683,5.47777 -6.66309,2.43396 0.22183,-2.661 -5.32491,-2.91968 -11.98188,-0.55877 -3.27641,1.16198 -6.3579,2.4663 -6.84774,2.8985 -0.48985,0.43218 -2.52469,0.7858 -4.52187,0.7858 -2.92597,0 -3.57108,-0.31238 -3.32149,-1.6084 0.17036,-0.88462 1.36145,-2.13537 2.64687,-2.77946 12.76364,-6.39547 12.44136,-6.29511 19.68086,-6.12921 3.86719,0.0886 7.93831,-0.0375 9.04694,-0.28026 2.25907,-0.49466 4.07806,-4.66186 4.07806,-9.34257 0,-3.59408 -0.63603,-4.38466 -2.6792,-3.33019 -0.84676,0.43701 -3.22705,1.24366 -5.28955,1.79256 -2.0625,0.5489 -6.05609,2.48682 -8.87464,4.30651 -2.81854,1.81969 -5.98261,3.31178 -7.03125,3.31577 -3.29526,0.0126 -13.94269,5.92863 -15.41913,8.56744 -1.2,2.14471 -1.21982,3.5173 -0.14633,10.12764 1.22958,7.57142 1.21595,7.70849 -1.38506,13.9253 -1.44477,3.45324 -3.18609,7.11077 -3.8696,8.12785 -0.6835,1.01706 -1.24274,2.75641 -1.24274,3.8652 0,3.01346 3.58621,10.53819 5.51414,11.56999 0.92808,0.49669 5.25757,0.90308 9.62107,0.90308 12.47816,0 15.80229,2.25328 15.80229,10.71165 l 0,4.57571 4.8997,-0.59677 c 2.69484,-0.32823 5.96437,-1.27857 7.26563,-2.11186 z m -10.27943,-0.29074 c -1.10433,-0.68251 -1.11393,-1.22621 -0.061,-3.45523 4.31363,-9.13237 2.05329,-20.41392 -4.86945,-24.30379 -2.97755,-1.67309 -12.95984,-11.89062 -12.61851,-12.91589 0.75487,-2.26747 3.36684,-1.39001 9.35401,3.1424 10.79099,8.16899 13.39686,11.1501 15.18322,17.36952 0.88859,3.09375 2.04928,6.15234 2.57931,6.79688 0.6623,0.8054 0.65562,1.17187 -0.0214,1.17187 -0.54178,0 -1.49109,2.26119 -2.10957,5.02488 -1.2092,5.40323 -4.75816,8.8247 -7.43655,7.16936 z m 18.34618,-44.88404 c -0.57008,-0.92242 5.10792,-7.06971 7.92019,-8.5748 1.53402,-0.82098 1.84773,-0.68969 1.84773,0.7733 0,2.04878 -3.31106,6.04546 -6.26649,7.56409 -2.46373,1.26596 -2.84958,1.29213 -3.50143,0.23741 z m -6.87271,-6.36859 c -0.64453,-0.26007 -1.17187,-1.20082 -1.17187,-2.09055 0,-2.67408 2.13922,-4.53041 5.85937,-5.08453 3.05642,-0.45525 3.51563,-0.28086 3.51563,1.33503 0,2.11787 -3.98937,6.49829 -5.81677,6.38692 -0.66796,-0.0407 -1.74182,-0.2868 -2.38636,-0.54687 z M 458.68236,491.25 c 1.92409,-1.03125 4.55456,-1.875 5.8455,-1.875 1.46134,0 2.34714,-0.53071 2.34714,-1.40625 0,-1.84918 -7.56632,-1.89551 -15.93785,-0.0976 -7.78845,1.67268 -9.37465,2.34067 -9.37465,3.9479 0,2.18487 12.77386,1.76027 17.11986,-0.56905 z M 205.78125,478.73648 c 0,-1.08016 -1.58814,-2.6163 -4.21875,-4.08061 -2.32031,-1.29158 -4.88478,-2.93784 -5.69882,-3.65835 -1.75602,-1.55427 -5.55118,-1.74765 -5.55118,-0.28287 0,2.32215 3.94344,6.47285 6.14964,6.47285 1.27422,0 2.79011,0.83838 3.45179,1.90903 1.51536,2.45197 5.86732,2.18491 5.86732,-0.36005 z m -103.35628,-1.78336 c 3.25625,-1.53479 4.25317,-4.06859 3.41195,-8.67187 -0.3769,-2.0625 -0.45915,-4.80469 -0.18279,-6.09375 0.45849,-2.13857 0.1599,-2.00955 -3.41077,1.47373 -3.329038,3.24758 -3.968573,4.49634 -4.283788,8.36469 -0.522863,6.41657 0.02438,7.02042 4.465398,4.9272 z m 22.05089,-0.58985 c 2.48579,-1.33036 2.75995,-2.32105 0.44602,-1.61164 -0.90235,0.27664 -3.32813,0.0617 -5.39063,-0.47765 -6.48995,-1.69713 -10.78125,-0.67836 -10.78125,2.55951 0,1.62138 12.517,1.2471 15.72586,-0.47022 z m 177.26511,-71.21235 2.87647,-2.49467 0.2694,-25.07867 c 0.14818,-13.79328 -0.0229,-25.07843 -0.38013,-25.07812 -0.35724,3e-4 -2.04474,0.80425 -3.75,1.78657 -3.20071,1.84377 -10.11949,3.40531 -13.41296,3.02725 -2.95317,-0.33901 -7.03125,-2.14125 -7.03125,-3.10735 0,-0.4835 -0.42188,-0.61835 -0.9375,-0.29968 -0.51563,0.31867 -0.9375,2.66389 -0.9375,5.21158 0,3.54575 0.33858,4.63217 1.4436,4.63217 0.79398,0 3.09748,0.84375 5.1189,1.875 4.96434,2.53262 9.30375,2.38199 13.50456,-0.46875 1.89954,-1.28906 3.85684,-2.34375 4.34957,-2.34375 1.77486,0 0.84034,2.5149 -1.91567,5.15534 -3.58477,3.43442 -11.88327,4.35809 -17.81845,1.9833 -4.40857,-1.76396 -4.71866,-1.42045 -4.55769,5.04886 0.0577,2.32031 -0.10203,10.75781 -0.35501,18.75 -0.32624,10.30604 -0.18169,13.91791 0.49711,12.42187 1.13993,-2.5123 4.04721,-2.73787 6.51405,-0.50541 1.75373,1.58711 9.12656,3.00594 12.1044,2.32939 0.8479,-0.19264 2.83605,-1.47286 4.4181,-2.84493 z M 285,396.8181 c -4.50022,-0.81903 -7.82647,-5.8806 -3.86449,-5.8806 0.96828,0 3.36434,0.67013 5.32458,1.48916 3.39714,1.41942 6.79306,1.39135 11.43053,-0.0945 1.61444,-0.51726 2.10938,-0.309 2.10938,0.88759 0,3.06575 -7.73326,4.92088 -15,3.59835 z m 10.13173,-44.45022 c 2.41974,-0.5883 5.03233,-1.58794 5.80577,-2.22143 0.77344,-0.63347 1.93379,-1.31237 2.57857,-1.50864 0.89301,-0.27184 1.2862,-7.5041 1.65033,-30.35671 0.26292,-16.49992 0.68908,-31.47641 0.94702,-33.2811 0.71015,-4.96857 -0.3735,-5.96905 -4.5673,-4.21677 -1.91014,0.7981 -5.04334,1.48911 -6.96268,1.53559 -5.2428,0.12691 -15.19348,-1.22366 -15.75916,-2.13895 -1.86947,-3.02488 -2.21273,1.3772 -1.83614,23.54762 0.22752,13.39388 0.71338,26.99934 1.07972,30.23438 0.36634,3.23504 0.74198,7.56938 0.83475,9.63188 0.34319,7.62944 0.39612,7.81316 2.12069,7.36217 0.90658,-0.23708 3.12142,0.20779 4.92188,0.98857 4.0149,1.7411 3.80616,1.73148 9.18655,0.42339 z m -10.36443,-9.09422 c -1.41705,-0.8552 -2.5772,-2.34107 -2.57812,-3.30194 -0.002,-1.4848 0.45564,-1.64559 3.04519,-1.07119 4.32141,0.95855 11.19281,1.01456 13.125,0.10699 3.08394,-1.44856 1.7906,1.99686 -1.5169,4.04102 -3.72627,2.30296 -8.48524,2.39168 -12.07517,0.22512 z m -3.36681,-48.47402 c -1.56253,-3.42938 -1.40071,-7.92464 0.28528,-7.92464 1.89601,0 3.31423,2.98243 3.31423,6.96962 0,3.98554 -1.97943,4.51072 -3.59951,0.95502 z m 5.10606,-0.97007 c -1.25639,-3.27409 -0.64572,-5.22087 1.54032,-4.9104 1.61672,0.22961 2.178,1.01119 2.40315,3.34646 0.24098,2.49933 -0.0358,3.04687 -1.54032,3.04687 -1.00876,0 -2.09017,-0.66731 -2.40315,-1.48293 z m 9.04032,-1.01296 c -1.89963,-0.76652 -1.34474,-2.74938 1.07835,-3.85341 2.50103,-1.13955 3.37478,-0.69481 3.37478,1.71775 0,1.25067 -2.18187,3.12449 -3.12355,2.68253 -0.0867,-0.0407 -0.68504,-0.2868 -1.32958,-0.54687 z m 219.22033,54.63523 c 1.81836,-0.40136 2.69614,-1.44511 3.51562,-4.18027 1.46155,-4.87821 1.37584,-6.70907 -0.31407,-6.70907 -0.77344,0 -1.40625,0.34373 -1.40625,0.76387 0,1.15841 -6.11586,3.83005 -10.29891,4.49895 -2.55144,0.40799 -3.89441,1.17246 -4.29898,2.44713 -0.76581,2.41288 0.2655,3.32241 4.28539,3.77936 3.38116,0.38434 4.37505,0.31433 8.5172,-0.59997 z M 302.16617,225.28465 c 2.7487,-3.86319 2.70626,-4.75151 -0.14202,-2.97273 -1.46063,0.91218 -2.41698,0.94125 -4.07567,0.12389 -1.19198,-0.58739 -3.11645,-1.33385 -4.27661,-1.65882 -2.31805,-0.6493 -2.76701,-2.5409 -0.9375,-3.94997 0.64454,-0.49641 4.23047,-0.93104 7.96875,-0.96584 5.71823,-0.0532 6.80161,0.18337 6.82669,1.4909 0.0251,1.30957 0.24901,1.25907 1.42253,-0.32083 5.61502,-7.55952 14.22354,-17.34375 15.25966,-17.34375 0.68929,0 5.65618,-2.63672 11.03751,-5.85937 5.38134,-3.22266 13.44844,-8.01537 17.9269,-10.65045 10.84442,-6.38079 11.02022,-7.30299 1.28474,-6.73941 -8.58474,0.49697 -10.68081,1.59763 -8.22025,4.31652 2.18078,2.40973 1.96254,3.93271 -0.56355,3.93271 -2.08307,0 -5.82737,-2.08682 -7.7086,-4.29626 -1.74155,-2.04537 -7.93562,-2.33322 -10.64338,-0.49462 -1.36489,0.92679 -4.27459,2.86312 -6.466,4.30297 -2.1914,1.43985 -3.98437,2.98241 -3.98437,3.42791 0,1.11125 1.63307,1.02241 2.34375,-0.1275 1.15858,-1.87463 4.08978,-0.86317 6.95477,2.39988 3.47276,3.95524 3.03822,5.25823 -1.63313,4.89701 -3.35732,-0.25961 -3.4285,-0.19648 -3.13593,2.78123 0.16464,1.67579 -0.0477,3.04688 -0.47192,3.04688 -0.4242,0 -2.75836,-2.1614 -5.18701,-4.80311 -3.29973,-3.5892 -4.84046,-4.63938 -6.09626,-4.15526 -0.92429,0.35633 -3.57896,1.12589 -5.89927,1.71013 -5.36732,1.35147 -6.5625,2.26214 -6.5625,5.00031 0,3.31427 -2.8361,9.74793 -4.29711,9.74793 -1.47127,0 -0.97462,-4.02162 1.14296,-9.25511 1.66358,-4.11148 1.68588,-4.04302 -1.20442,-3.69778 -2.84019,0.33924 -3.17871,0.88244 -5.73506,9.20289 -1.26419,4.11471 -2.40847,6.20058 -3.52337,6.42269 -1.33633,0.26621 -1.52603,-0.0913 -0.99497,-1.875 1.0221,-3.43298 3.36067,-14.24619 3.11414,-14.39934 -0.12151,-0.0755 -1.61828,-0.694 -3.32616,-1.37446 -3.03946,-1.21101 -3.19336,-1.15073 -7.26563,2.84589 -2.28821,2.24571 -4.16038,4.41299 -4.16038,4.81617 0,0.40319 4.4793,5.55877 9.95401,11.45683 5.47471,5.89808 10.74194,12.01942 11.70497,13.603 2.56014,4.20982 6.32122,3.97946 9.56969,-0.58613 z M 107.0763,224.16418 c 1.29519,-0.49243 2.59748,-1.82298 2.89398,-2.95678 0.53018,-2.02741 0.40715,-2.05453 -7.44955,-1.64216 -5.529389,0.29022 -8.247811,0.83053 -8.830563,1.75515 -1.653228,2.6231 8.367393,4.75191 13.386133,2.84379 z m 165.7362,-2.53516 c 0,-2.69987 -9.96965,-12.10654 -15.5033,-14.62784 C 256.03914,206.4225 255,205.64606 255,205.27576 c 0,-1.07021 -5.6135,-3.10511 -6.35818,-2.30485 -0.37019,0.39781 -0.17269,0.90264 0.4389,1.12185 1.75205,0.62797 12.71596,8.07474 14.56348,9.89162 0.91757,0.90234 1.66449,1.95703 1.65985,2.34375 -0.01,0.83025 5.78417,5.79752 6.80532,5.83415 0.38672,0.0139 0.70313,-0.2261 0.70313,-0.53326 z m 239.34236,-1.24471 c 2.54928,-0.96923 3.6929,-3.08797 2.85099,-5.28194 -0.35033,-0.91294 -1.1298,-1.22488 -2.07995,-0.83239 -0.83581,0.34526 -3.5672,1.18658 -6.06975,1.8696 -5.31993,1.45199 -5.70885,1.73868 -4.97014,3.66374 0.6334,1.6506 6.57187,1.98659 10.26885,0.58099 z M 260.625,218.39482 c -1.28906,-1.03179 -4.03125,-3.05041 -6.09375,-4.48583 -2.0625,-1.43542 -5.85938,-4.09604 -8.4375,-5.91249 -4.63187,-3.26345 -9.84375,-5.29917 -9.84375,-3.8449 0,0.41241 1.16016,1.27314 2.57812,1.91274 5.60911,2.53008 12.27354,6.53473 14.84871,8.92256 1.49064,1.3822 3.19026,2.5131 3.77693,2.5131 0.58666,0 1.59184,0.63281 2.23374,1.40625 0.6419,0.77344 1.64277,1.39687 2.22416,1.3854 0.5814,-0.0114 0.003,-0.86503 -1.28666,-1.89683 z M 511.59162,209.496 c 2.74369,-1.79773 2.90335,-5.121 0.24603,-5.121 -1.05179,0 -3.58304,0.85233 -5.625,1.89405 -3.52882,1.80027 -4.55285,3.51576 -3.01603,5.05256 0.94878,0.94878 5.75633,-0.0967 8.395,-1.82561 z m -411.3394,-7.87641 c 1.16962,-0.7401 1.16962,-1.06432 0,-2.47461 -0.740289,-0.89261 -2.717064,-2.19605 -4.392845,-2.89653 -1.675781,-0.70049 -3.046875,-1.95242 -3.046875,-2.78207 0,-1.23456 -0.255344,-1.29655 -1.40625,-0.34138 -2.136352,1.77302 -1.756606,6.21078 0.677349,7.91559 2.310763,1.61852 6.101226,1.8872 8.168621,0.579 z m 133.18528,-0.0571 c 0,-0.51563 -0.34233,-0.9375 -0.76073,-0.9375 -0.41839,0 -1.57855,-0.73828 -2.57812,-1.64063 -3.60239,-3.25199 -9.71362,-6.9773 -10.83357,-6.60398 -0.62901,0.20967 0.72044,1.49599 2.99876,2.85848 2.27832,1.36249 5.40803,3.53847 6.95491,4.83548 3.03722,2.54663 4.21875,2.96342 4.21875,1.48815 z m 277.12433,-3.28911 c 2.2926,-2.2926 2.33266,-4.24088 0.086,-4.18127 -1.46769,0.0389 -6.27279,4.29068 -6.27279,5.55041 0,1.83785 3.82668,0.99102 6.18683,-1.36914 z m -267.74933,0.86126 c 0,-0.84658 -4.08915,-4.06819 -5.20849,-4.10346 -0.54436,-0.0172 -2.44279,-1.11921 -4.21875,-2.449 -1.77595,-1.3298 -5.28961,-3.54464 -7.80812,-4.92188 -2.51851,-1.37723 -5.56168,-3.04703 -6.76262,-3.71067 -2.97206,-1.64237 -14.46939,-9.171 -16.78327,-10.98995 -1.03125,-0.81066 -4.58551,-3.24964 -7.89836,-5.41994 -10.7521,-7.04388 -11.9444,-7.9692 -15.26078,-11.84365 -1.7989,-2.1016 -3.58113,-3.8211 -3.96051,-3.8211 -0.37939,0 -2.44829,-1.39973 -4.59757,-3.11051 -2.14928,-1.71078 -6.22809,-4.53516 -9.06403,-6.2764 -2.83594,-1.74123 -7.11818,-4.66573 -9.5161,-6.49886 -2.39792,-1.83314 -5.56198,-4.06357 -7.03125,-4.95652 -15.80282,-9.60418 -25.13357,-16.14478 -31.26515,-21.91605 -3.9808,-3.74687 -5.4248,-4.49109 -8.20312,-4.22773 -1.67201,0.15848 -1.45634,1.98607 0.23437,1.98607 0.77344,0 1.40625,0.37602 1.40625,0.83559 0,0.45959 2.36248,3.19809 5.24996,6.08556 4.55418,4.55418 13.16293,10.62079 22.05708,15.54367 1.43232,0.79278 6.31559,4.37818 10.85171,7.96753 4.53612,3.58936 9.51313,7.18416 11.06,7.98846 1.54687,0.8043 5.13281,3.1968 7.96875,5.31667 2.83594,2.11987 8.10937,5.42435 11.71875,7.3433 3.60937,1.91894 9.03636,5.13266 12.05995,7.1416 3.02361,2.00894 5.66033,3.65262 5.85938,3.65262 0.19906,0 1.14227,0.73828 2.09603,1.64062 2.77764,2.6279 5.10508,4.40327 11.18735,8.53366 3.14174,2.13351 5.96683,4.29103 6.27798,4.79447 0.31114,0.50345 2.34122,1.76835 4.51127,2.8109 2.17005,1.04255 5.02778,2.63659 6.35052,3.54232 6.49085,4.44453 8.96273,5.85923 10.25127,5.86696 0.77344,0.005 2.67187,0.81914 4.21875,1.80998 2.95423,1.89232 4.21875,2.30767 4.21875,1.38574 z m 28.17785,-4.34358 c 2.38442,-2.61061 3.6108,-5.41607 2.36758,-5.41607 -0.21565,0 -1.0594,-0.25607 -1.875,-0.56905 C 270.56006,188.45182 270,188.7393 270,189.56714 c 0,0.73163 -1.25153,2.25555 -2.78119,3.38648 -1.72753,1.27721 -2.57747,2.58711 -2.24344,3.45755 0.85533,2.22899 3.03578,1.6417 6.01498,-1.6201 z m 32.36241,-4.22637 c 0.99192,-0.50908 3.26479,-1.20345 5.05082,-1.54305 3.03314,-0.57673 8.47142,-4.67533 8.47142,-6.38455 0,-1.45135 -2.96596,-0.75121 -7.11293,1.67908 -3.93966,2.30879 -4.7005,2.41789 -14.03082,2.01183 -10.05088,-0.43741 -14.48125,-0.089 -14.48125,1.1389 0,0.63737 5.22686,3.14752 8.4375,4.05201 2.39602,0.675 11.76559,0.0207 13.66526,-0.95422 z m -38.65366,-0.95533 c 1.62643,-0.90234 3.11977,-1.73293 3.31852,-1.84574 0.19875,-0.11281 -0.27748,-1.18011 -1.05829,-2.37178 -1.63959,-2.50233 -9.21021,-4.77871 -15.57283,-4.68252 -6.6997,0.10128 -6.5932,1.46788 0.47929,6.14983 7.21473,4.77611 8.63364,5.08019 12.83331,2.75021 z m 41.56632,-6.03515 c -0.29927,-0.74787 -0.52142,-0.52573 -0.5664,0.56641 -0.0407,0.98827 0.18087,1.54199 0.49239,1.23047 0.31152,-0.31153 0.34482,-1.12013 0.074,-1.79688 z M 21.798666,180.23437 C 26.875572,175.66287 35.625,163.51773 35.625,161.04195 c 0,-0.76294 0.469173,-2.73303 1.042607,-4.37798 1.384816,-3.97248 9.83355,-9.47647 14.546584,-9.47647 3.411734,0 3.805726,0.25124 11.456135,7.30539 4.75386,4.38336 8.19713,5.17263 13.062679,2.99427 1.927583,-0.86301 5.187933,-1.88373 7.245221,-2.26828 4.39905,-0.82226 6.084274,-2.01212 6.084274,-4.29587 0,-2.0739 -2.633899,-3.17582 -4.295306,-1.79698 -0.684834,0.56836 -4.788938,1.25093 -9.12023,1.5168 -8.849072,0.54321 -11.543862,-0.35614 -17.75904,-5.92683 -3.135361,-2.81024 -4.108235,-3.1535 -8.937864,-3.1535 -4.596865,0 -6.191307,0.49722 -10.503719,3.27555 -5.66327,3.64865 -5.968333,4.05324 -8.412498,11.15734 -0.950228,2.76188 -2.506728,5.94855 -3.45889,7.08148 -2.225316,2.6478 -8.139738,6.61968 -13.215578,8.87502 -2.191406,0.97371 -3.984375,2.10906 -3.984375,2.52301 0,0.41395 1.516456,1.03713 3.369902,1.38484 3.006506,0.56402 3.324092,0.89716 2.94509,3.08935 -0.233647,1.35144 -0.740551,3.19544 -1.126454,4.09779 -1.331232,3.11277 2.16346,1.75428 7.235128,-2.8125 z M 207.65625,183.75 c -0.31868,-0.51563 -1.08186,-0.93104 -1.69596,-0.92315 -0.67088,0.008 -0.55525,0.37709 0.28971,0.92315 1.80105,1.16393 2.12559,1.16393 1.40625,0 z m 98.74358,-1.46561 c 1.61584,-0.80609 3.16309,-1.83 3.43834,-2.27536 0.27524,-0.44535 2.0766,-1.28928 4.00301,-1.87539 1.92642,-0.5861 6.03382,-2.31685 9.12757,-3.8461 8.24271,-4.07439 14.71496,-13.11416 17.38931,-24.28754 1.45807,-6.09177 1.91017,-6.71324 5.85514,-8.04868 2.42379,-0.82049 3.09628,-1.63502 3.4743,-4.2081 0.54872,-3.73501 2.96251,-4.68399 5.67354,-2.23054 2.44594,2.21354 7.90425,1.23999 11.30273,-2.01595 3.31854,-3.17936 5.77333,-13.04571 4.64094,-18.65298 -0.9681,-4.79378 -1.91241,-7.03125 -2.96751,-7.03125 -0.46046,0 -0.8372,-0.63281 -0.8372,-1.40625 0,-2.11524 2.61221,-1.69177 5.13673,0.83275 3.39002,3.39002 3.81632,7.88162 1.5896,16.74827 -1.06138,4.22635 -1.80221,7.81185 -1.64629,7.96777 0.15593,0.15592 1.50248,-1.31002 2.99235,-3.25765 2.17668,-2.84545 2.71093,-4.49481 2.71941,-8.39544 0.0113,-5.20567 0.95982,-7.19182 2.36982,-4.9623 1.48818,2.35314 0.98906,9.24968 -0.94358,13.03797 -2.14616,4.20685 -7.96444,7.84173 -15.31972,9.57078 -4.79097,1.12624 -4.91738,1.24686 -8.0845,7.71403 -3.48246,7.11108 -4.09395,10.438 -2.20644,12.0045 0.66281,0.55008 1.21915,1.47584 1.23631,2.05723 0.0412,1.3972 2.68395,4.47112 5.56804,6.47655 1.63474,1.13671 1.87582,1.61179 0.81791,1.61179 -0.82503,0 -2.02524,-0.63281 -2.66714,-1.40625 C 358.4206,165.63281 356.92269,165 355.73381,165 c -1.77028,0 -2.52327,-0.96667 -4.1595,-5.33988 -2.29324,-6.12924 -2.00308,-8.29555 1.88222,-14.05248 1.4828,-2.19709 2.29785,-4.24079 1.81122,-4.54155 -0.48663,-0.30075 -1.36317,0.50314 -1.94788,1.78643 -0.5847,1.28329 -2.19934,2.80389 -3.58806,3.37913 -1.97904,0.81974 -2.53533,1.69494 -2.57286,4.04773 -0.0263,1.65104 -0.36629,4.78593 -0.75545,6.96646 -0.74598,4.17981 1.10084,8.69166 3.55774,8.69166 1.11572,0 12.94234,4.62431 17.24114,6.74144 1.12538,0.55423 2.78919,0.72257 3.69736,0.37406 1.40247,-0.53817 1.20014,-0.90796 -1.34301,-2.45454 -1.64683,-1.00149 -2.99423,-2.24094 -2.99423,-2.75432 0,-1.31377 4.23338,-2.22388 7.05285,-1.51624 1.89419,0.47541 2.52406,0.16886 3.16214,-1.539 0.72409,-1.93805 0.42573,-2.22994 -3.26991,-3.19899 -2.23667,-0.58648 -5.45261,-1.88499 -7.14651,-2.88555 -2.67453,-1.57982 -3.07133,-2.30309 -3.01525,-5.49616 0.0871,-4.95786 4.27118,-11.2295 8.40103,-12.59247 5.24975,-1.73258 11.29563,-7.0123 13.0496,-11.39591 1.24944,-3.12264 1.46104,-5.41516 0.96016,-10.40266 -0.92714,-9.23206 -3.40195,-13.3146 -10.28786,-16.97123 -12.80294,-6.798749 -15.74687,-10.260275 -16.85182,-19.81468 -0.37996,-3.28552 -0.114,-5.49064 0.88924,-7.372788 1.87847,-3.52415 1.80717,-5.090884 -0.44367,-9.749585 -1.03125,-2.134441 -1.875,-4.295669 -1.875,-4.802726 0,-0.507058 -4.00781,-4.995419 -8.90625,-9.974136 -8.06562,-8.197807 -10.01309,-11.212678 -8.33004,-12.89572 0.97909,-0.979103 4.74212,2.051811 7.24719,5.837224 1.3125,1.983315 4.06946,4.810161 6.12659,6.281879 2.30735,1.650728 5.18742,5.214062 7.51778,9.301267 3.15846,5.539627 3.80568,7.563677 3.94932,12.350648 0.12298,4.098562 -0.24063,6.137655 -1.27977,7.176791 -2.9967,2.99671 0.3127,10.420405 7.09096,15.906508 4.21852,3.414329 5.3688,2.720241 2.40043,-1.448457 -1.96315,-2.756982 -2.26095,-4.467472 -2.75741,-15.837414 -0.53676,-12.293523 -0.67936,-12.993694 -4.01153,-19.697553 -4.21975,-8.489513 -11.56318,-16.528966 -18.26232,-19.993226 -2.75098,-1.422585 -4.52999,-4.785086 -3.75761,-7.102231 0.52494,-1.574809 14.90489,8.762451 18.96852,13.635827 2.00866,2.408915 4.66892,6.487625 5.91171,9.0638 1.24279,2.576175 2.44838,4.495194 2.67909,4.264486 0.23071,-0.230707 0.14948,-2.389217 -0.1805,-4.796689 -0.4849,-3.537777 -1.48608,-5.320106 -5.22051,-9.293814 -2.5413,-2.704125 -5.21284,-6.03071 -5.93677,-7.392411 -1.57594,-2.964341 -8.57718,-8.30543 -10.88698,-8.30543 -0.90405,0 -2.03716,-0.703027 -2.51802,-1.56228 -0.59747,-1.067607 -1.98204,-1.520636 -4.37277,-1.43076 -5.94066,0.223332 -9.76571,-3.513473 -5.10925,-4.991376 1.53949,-0.488613 1.70342,-0.876981 0.81968,-1.941822 -0.94251,-1.135659 -1.57256,-1.04189 -4.29191,0.638761 -4.01082,2.478824 -6.39145,1.790516 -5.54004,-1.60178 0.65627,-2.614797 -1.48058,-6.923243 -3.4337,-6.923243 -0.83418,0 -0.82891,0.2744841 0.0217,1.125 1.53066,1.530666 1.41533,4.695281 -0.25144,6.898941 -0.75703,1.000895 -1.38984,2.533192 -1.40625,3.405106 -0.0593,3.157678 -2.0532,2.708931 -5.65375,-1.272485 -2.02079,-2.234546 -3.69147,-4.344062 -3.71262,-4.687812 -0.0212,-0.34375 1.12171,-1.017336 2.53968,-1.496858 l 2.57813,-0.871857 -4.6875,-2.171496 C 311.27714,8.7960664 307.98034,8.1014925 303.75,8.0321331 c -3.35156,-0.054951 -6.72656,-0.5031865 -7.5,-0.9960785 -2.63788,-1.6810514 -19.65662,-1.6995503 -27.65625,-0.030062 -4.125,0.8608702 -9.35066,1.7204888 -11.61258,1.9102637 -5.4872,0.4603746 -13.7726,3.8304394 -18.38742,7.4790264 -2.0625,1.630662 -5.01563,3.710915 -6.5625,4.622783 -5.1556,3.039178 -18.70168,23.583386 -20.31368,30.808063 -0.48538,2.175317 -2.56179,7.330121 -4.61427,11.455121 -2.44967,4.923274 -4.0605,9.754636 -4.6886,14.0625 -0.52626,3.609375 -1.56611,9.162995 -2.31077,12.341377 -1.97132,8.41402 -1.96548,8.479842 1.82704,20.596943 0.8286,2.64733 1.50653,5.68103 1.50653,6.74155 0,1.06052 0.42187,2.18895 0.9375,2.50763 1.11264,0.68765 1.27653,-2.01334 0.96014,-15.82366 -0.16721,-7.298953 0.0629,-10.015379 0.80935,-9.554043 0.57366,0.354534 1.04301,1.687706 1.04301,2.962603 0,1.274897 0.89058,4.94141 1.97906,8.1478 3.20113,9.42972 1.54796,21.88546 -3.82225,28.79855 -6.11903,7.87703 -6.89096,23.4375 -1.16272,23.4375 0.79861,0 2.11805,0.56143 2.93209,1.24762 0.81404,0.6862 3.48922,2.39456 5.94484,3.79635 3.9905,2.27798 4.52909,2.38108 5.07035,0.97057 0.42745,-1.11391 -0.69866,-2.79291 -3.82815,-5.70769 -4.02401,-3.74793 -4.37359,-4.40775 -3.78297,-7.14007 1.35619,-6.27391 4.96362,-11.67343 10.7278,-16.05713 4.39947,-3.34581 5.80026,-4.00536 6.21446,-2.92598 0.61311,1.59771 -3.08162,6.6929 -5.46571,7.53745 -2.81008,0.99545 -6.17218,5.90015 -6.86812,10.01933 -0.64756,3.8329 -0.51917,4.13096 3.20169,7.43293 3.15761,2.80214 3.92266,4.1323 4.12636,7.17438 0.3012,4.49803 1.69054,6.34662 5.91907,7.87568 1.75407,0.63428 3.1892,1.42264 3.1892,1.75191 0,0.32927 1.07474,1.08837 2.38832,1.68688 2.1118,0.96219 2.65967,0.7954 4.73194,-1.44061 1.50238,-1.6211 2.24353,-3.38634 2.0648,-4.91784 -0.23944,-2.05173 -0.9132,-2.50426 -4.77202,-3.20515 -3.81026,-0.69206 -4.98948,-1.46605 -7.75817,-5.09211 -4.11979,-5.3955 -4.66052,-7.60227 -3.07899,-12.56537 1.14112,-3.58104 4.79045,-7.24034 8.43069,-8.45376 1.75346,-0.58448 2.33756,-14.99016 0.77449,-19.10135 -0.47848,-1.25847 -1.82729,-3.58246 -2.99738,-5.16442 -1.52438,-2.06097 -2.30351,-4.78105 -2.74862,-9.59584 -0.34165,-3.69574 -0.92864,-8.765858 -1.30442,-11.266921 -0.60949,-4.05658 -0.50287,-4.511924 0.98784,-4.218752 1.01406,0.199433 2.1076,1.803003 2.78137,4.078643 0.61067,2.0625 1.64191,4.738903 2.29166,5.94756 1.42692,2.65438 8.32514,5.89203 11.04066,5.18191 2.99613,-0.78351 3.46959,1.24489 0.71228,3.05155 -2.09735,1.37423 -2.91605,1.43962 -5.64942,0.45123 -5.7338,-2.07338 -6.94392,1.46375 -2.3074,6.74446 6.22385,7.08856 6.12151,16.72853 -0.27171,25.59583 -3.55431,4.92976 -4.67458,8.80871 -2.54402,8.80871 0.41768,0 0.97951,0.84162 1.2485,1.87027 0.67833,2.59392 3.22259,3.34042 5.22102,1.53188 1.55276,-1.40524 1.8428,-1.33003 4.08068,1.05817 1.32502,1.41401 3.26138,4.27282 4.30305,6.3529 1.04167,2.08009 4.63131,6.54641 7.97697,9.92516 6.38717,6.45034 5.36727,5.96228 21.27288,10.17972 1.80469,0.47852 4.125,0.69097 5.15625,0.4721 6.16686,-1.30883 9.32923,-1.3287 11.24918,-0.0707 1.13605,0.74437 3.49941,1.52822 5.25193,1.74191 1.75251,0.21369 3.22704,0.45603 3.27673,0.53855 0.0497,0.0825 1.41239,-0.50949 3.02824,-1.31557 z m -9.59821,-11.5253 c -1.01159,-1.63678 0.47039,-3.68167 3.02164,-4.16937 1.3804,-0.26388 2.8102,-0.29412 3.17733,-0.0672 1.05464,0.6518 -0.16011,2.92402 -1.89356,3.54197 -0.86668,0.30895 -2.06446,0.79467 -2.66174,1.07937 -0.59728,0.2847 -1.33693,0.11156 -1.64367,-0.38475 z M 292.5,163.3125 c 0,-1.51723 2.31683,-3 4.6875,-3 2.37067,0 4.6875,-1.48277 4.6875,-3 0,-1.53029 -4.62352,-0.67717 -8.57618,1.58245 -4.97751,2.8455 -9.23632,3.13624 -9.23632,0.63054 0,-2.06195 2.07153,-3.08437 10.78357,-5.32234 8.01614,-2.0592 13.59143,-1.42402 13.59143,1.54843 0,2.34435 -3.50085,5.42482 -6.21334,5.46723 -1.09701,0.0172 -2.51976,0.664 -3.16166,1.43744 -1.20497,1.45191 -6.5625,1.98766 -6.5625,0.65625 z M 202.6875,154.5 c -1.29921,-1.29921 -1.53338,-9.76195 -0.29136,-10.52956 0.45851,-0.28338 1.0954,-1.55812 1.41531,-2.83276 0.31991,-1.27463 2.15962,-4.45619 4.08823,-7.07011 2.9505,-3.99892 3.86413,-4.66487 5.76139,-4.19945 4.80736,1.17926 5.15842,-5.74829 0.79205,-15.62933 -2.80821,-6.35495 -3.0331,-7.59267 -2.871,-15.80129 0.17736,-8.982152 2.79665,-21.61584 4.6066,-22.219157 0.6114,-0.203798 0.92698,5.235449 0.89381,15.405189 -0.0491,15.067348 0.0558,15.979938 2.52684,21.973868 2.99111,7.2554 3.22608,11.45308 0.9375,16.74813 -1.59471,3.68968 -4.56483,5.56519 -6.71184,4.23827 -1.26919,-0.7844 -6.38951,6.36342 -7.53796,10.52275 -0.57981,2.09993 -0.58287,3.8923 -0.008,4.96562 1.48282,2.77066 1.08769,5.55283 -0.78862,5.55283 -0.92813,0 -2.19375,-0.50625 -2.8125,-1.125 z m 85.125,-8.61845 c 0,-1.65924 2.55061,-2.68876 3.37133,-1.36079 0.34039,0.55076 0.0375,1.36961 -0.67309,1.8197 -1.85831,1.17703 -2.69824,1.03417 -2.69824,-0.45891 z m 7.73437,-0.80343 c 0.21485,-0.64453 1.16407,-1.17187 2.10938,-1.17187 0.94531,0 1.89453,0.52734 2.10937,1.17187 0.2474,0.7422 -0.52604,1.17188 -2.10937,1.17188 -1.58333,0 -2.35677,-0.42968 -2.10938,-1.17188 z m 51.60157,-14.0625 c 0.23633,-0.64453 0.9711,-1.04414 1.63283,-0.888 2.35152,0.55479 2.43989,-1.83153 0.23818,-6.43201 -2.20875,-4.61518 -2.21577,-4.72467 -0.65877,-10.27377 1.04392,-3.72052 1.36037,-6.95036 0.93994,-9.59347 -0.34861,-2.19154 -0.59828,-9.258058 -0.55484,-15.70337 0.0723,-10.72852 -0.73975,-18.501945 -2.37501,-22.734375 -1.055,-2.73061 2.8401,-2.026168 4.10123,0.741721 2.91837,6.405114 3.47771,21.807548 1.02612,28.255726 -0.54887,1.443628 -0.29661,4.17569 0.75616,8.189628 1.38392,5.27646 1.41437,6.33241 0.24564,8.5162 -0.73379,1.37109 -1.35036,4.67415 -1.37016,7.34012 -0.0319,4.28457 0.20196,4.8811 2.01411,5.13905 1.37117,0.19516 2.57438,-0.50829 3.6331,-2.1241 1.56745,-2.39225 1.54814,-3.99223 -0.15048,-12.46459 -0.80836,-4.03192 1.77999,-4.22236 3.81818,-0.28094 1.70508,3.29726 1.75832,5.04073 0.39331,12.87919 -0.97681,5.60931 -1.26729,6.08992 -5.00423,8.27992 -4.24132,2.48557 -9.4263,3.17394 -8.68531,1.15307 z m -98.71094,-3.05959 c 0,-0.88346 2.31526,-4.63829 4.90576,-7.95603 5.31045,-6.80127 5.28981,-6.78789 9.48101,-6.14378 2.14196,0.32917 5.37104,0.68857 7.17573,0.79865 3.08339,0.18808 3.29903,0.41575 3.57612,3.77557 0.38098,4.61961 -0.7158,5.81536 -7.17027,7.81723 -6.04674,1.8754 -9.13006,1.78704 -11.23919,-0.32209 -1.32881,-1.3288 -1.61542,-1.28004 -3.07566,0.52329 -1.45892,1.80169 -3.6535,2.70702 -3.6535,1.50716 z m 55.53007,-10.76853 c -0.6683,-1.07012 -2.18627,-1.875 -3.53619,-1.875 -3.18491,0 -3.90965,-2.41112 -1.63892,-5.45252 3.86335,-5.17453 18.66509,-8.42108 24.54074,-5.38266 3.60148,1.8624 3.72428,3.11757 0.34313,3.50729 -2.03651,0.23473 -2.67244,0.88366 -3.04688,3.10914 -0.38356,2.27968 -1.43748,3.30092 -5.56318,5.39063 -6.05974,3.0693 -9.48545,3.28634 -11.0987,0.70312 z m -55.53007,-4.02355 c 0,-1.68169 7.50173,-8.75995 10.11566,-9.54463 1.39955,-0.42015 3.44933,0.0343 5.88825,1.30559 2.05773,1.07255 4.57209,1.95009 5.58746,1.95009 1.01537,0 1.84613,0.37022 1.84613,0.82271 0,1.90779 -2.72221,2.73117 -8.59298,2.59911 -5.14875,-0.11582 -6.75173,0.23089 -9.10267,1.9688 -3.1729,2.34556 -5.74185,2.74746 -5.74185,0.89833 z m 87.28373,-5.58582 c -0.43716,-1.16016 -1.10945,-3.58594 -1.49396,-5.39063 -1.07099,-5.026678 -2.12043,-6.444506 -5.90171,-7.9734 -4.06203,-1.642405 -12.6645,-10.635667 -14.99319,-15.674289 -0.88749,-1.920292 -1.91091,-3.502323 -2.27427,-3.515625 -0.69831,-0.02557 -1.73543,4.593925 -2.16075,9.624287 -0.13986,1.654277 -0.30055,3.331008 -0.35707,3.72607 -0.0565,0.39506 -1.62411,1.443762 -3.48351,2.330447 l -3.38072,1.612155 -2.2408,-2.799198 c -2.63535,-3.292056 -5.46123,-11.183274 -4.70784,-13.146561 0.87999,-2.293242 3.32558,-1.539845 3.91717,1.206739 0.73788,3.425762 3.47574,8.909899 4.64224,9.298731 0.57905,0.193016 0.93193,-3.505537 0.93193,-9.767481 0,-8.851059 0.32866,-10.934217 2.69936,-17.109375 3.24651,-8.456455 4.57574,-10.18026 6.57231,-8.52326 0.76836,0.637683 1.57582,2.078006 1.79437,3.200717 0.25256,1.297355 0.44913,0.84546 0.53939,-1.239957 0.15436,-3.566079 1.49909,-6.42673 2.5344,-5.391425 0.3564,0.356413 0.72859,2.955645 0.82708,5.776071 0.0985,2.820426 0.6323,5.680659 1.18628,6.356076 0.55398,0.675415 1.50833,3.126466 2.12078,5.446778 1.43431,5.433998 6.47373,13.030153 13.36206,20.14121 3.00487,3.102022 5.67831,6.694728 5.941,7.98379 0.26268,1.289063 1.13126,4.955766 1.93017,8.14823 1.63223,6.52253 1.10008,8.77085 -1.51569,6.40362 -1.48962,-1.34809 -1.72489,-1.35456 -2.22125,-0.061 -0.82346,2.14588 -3.35773,1.75238 -4.26778,-0.66266 z M 335.625,92.338461 c 0,-0.260723 -2.39442,-3.006569 -5.32093,-6.101882 -5.64939,-5.975246 -11.45657,-15.15298 -11.55891,-18.267829 -0.0338,-1.03125 -0.69169,-2.929688 -1.46182,-4.21875 -1.33867,-2.240726 -1.3771,-2.137702 -0.87425,2.34375 1.5383,13.709438 1.62852,13.867797 13.10498,23.001722 4.34774,3.460297 6.11093,4.396 6.11093,3.242989 z m -90.16422,10.568719 c -1.37939,-1.16926 -3.84554,-4.34758 -5.48035,-7.062918 -2.77575,-4.610422 -2.97717,-5.540623 -3.04508,-14.062502 -0.0607,-7.607804 0.26405,-9.777867 1.95217,-13.047933 1.11368,-2.157334 2.76881,-4.47901 3.67805,-5.159282 0.90926,-0.680272 3.12418,-3.133931 4.92207,-5.452577 4.64831,-5.994679 12.13502,-12.164359 14.77798,-12.178291 2.52922,-0.01333 0.95396,2.947719 -3.35565,6.307695 -3.77645,2.944289 -8.23815,8.319995 -10.77247,12.979267 -0.30273,0.556538 -1.00587,3.863039 -1.56257,7.347777 -0.94651,5.924941 -0.86174,6.649795 1.30701,11.175612 1.27553,2.661847 2.91407,5.572511 3.64116,6.468144 1.15343,1.420768 8.1962,5.006791 13.08627,6.66324 1.97067,0.667538 2.15053,2.352769 0.32584,3.052969 -1.58969,0.610019 -14.97682,-4.824572 -16.54804,-6.717784 -1.78507,-2.150865 -3.69967,-1.602418 -3.69967,1.059784 0,3.570957 1.48568,5.712975 4.75226,6.851719 1.66179,0.5793 2.74802,1.52935 2.52448,2.20798 -0.66376,2.01514 -3.86704,1.80192 -6.50346,-0.4329 z m 52.19547,1.15532 c -0.82513,-1.33508 0.17706,-2.61351 3.32483,-4.241287 1.50545,-0.7785 3.38797,-2.673938 4.18337,-4.212085 1.2241,-2.367133 1.999,-2.796628 5.04569,-2.796628 4.81632,0 8.94922,3.108375 7.56696,5.691141 -0.77239,1.443225 -1.98913,1.808859 -6.01941,1.808859 -4.02032,0 -5.61985,0.47838 -7.83672,2.34375 -2.91949,2.45659 -5.28711,2.98806 -6.26472,1.40625 z m -30.9375,-8.435869 C 262.42025,93.781163 255.34289,86.53636 254.48,83.098313 c -0.722,-2.876661 -0.22739,-5.754563 0.989,-5.754563 0.50164,0 1.76149,1.728588 2.79966,3.841306 2.56827,5.226508 4.98169,8.004526 9.20253,10.592777 3.49874,2.145454 5.82194,2.077795 3.63818,-0.105958 -0.61015,-0.610156 -1.11197,-1.763281 -1.11515,-2.5625 -0.003,-0.799219 -0.63599,-2.661504 -1.40625,-4.138413 -1.91675,-3.675211 -1.75661,-5.283462 0.52612,-5.283462 1.42459,0 2.49808,1.292249 4.11987,4.959395 2.36588,5.349668 3.69371,6.833101 6.59903,7.372363 2.37303,0.440462 3.00216,3.416058 0.89336,4.225279 -0.87984,0.337632 -2.42064,0.101204 -3.424,-0.525403 -1.12008,-0.699506 -2.24828,-0.812793 -2.92269,-0.293493 -2.23969,1.724597 -4.00426,1.77089 -7.66091,0.20099 z m 25.3711,-2.935532 c -2.33998,-1.840624 -2.58303,-1.864871 -3.67834,-0.366942 -0.70228,0.960413 -2.08289,1.474162 -3.44117,1.280502 -3.79748,-0.541422 -5.72937,-6.965443 -5.10331,-16.969766 0.8924,-14.260427 5.22371,-22.382205 16.88474,-31.661166 5.56415,-4.427535 8.87323,-5.809077 8.87323,-3.704582 0,0.526154 -2.95234,3.980071 -6.56076,7.675369 -7.66074,7.845202 -10.47873,13.947349 -10.43746,22.601502 0.0342,7.173196 2.29858,14.716081 5.25015,17.488932 4.10613,3.857521 2.54065,7.060339 -1.78708,3.656151 z M 261.98259,79.593412 c -2.52242,-4.877834 -1.25401,-14.557335 3.03196,-23.13734 1.87516,-3.753848 3.86947,-6.667758 4.43179,-6.475357 1.51433,0.518139 0.66545,4.336754 -1.96031,8.818145 -1.98558,3.388794 -2.35066,5.300483 -2.5497,13.351118 -0.12777,5.167805 -0.48617,9.649867 -0.79645,9.960138 -0.31027,0.310271 -1.28104,-0.822246 -2.15729,-2.516704 z M 216.17624,62.008474 c -1.49486,-2.418738 5.22545,-15.67571 11.73671,-23.152698 2.66999,-3.06599 5.21622,-5.715151 5.65829,-5.887026 1.26678,-0.492524 0.9367,2.478033 -0.36812,3.312791 -0.64453,0.412339 -2.39062,3.070021 -3.8802,5.905959 -1.48959,2.835937 -3.67434,6.210937 -4.85502,7.5 -1.18067,1.289062 -2.4469,3.609375 -2.81386,5.15625 -1.40523,5.923746 -4.08143,9.424095 -5.4778,7.164724 z M 330.5493,57.965013 c -3.69454,-4.316244 -7.1118,-12.402334 -7.1118,-16.828306 0,-3.813614 2.01611,-3.077957 3.05452,1.114561 1.32242,5.339256 6.46728,14.989198 8.80979,16.524063 2.66505,1.746211 2.83807,3.099669 0.39624,3.099669 -0.99107,0 -3.30801,-1.759494 -5.14875,-3.909987 z m -81.1743,-7.54741 c 0,-0.687995 0.73828,-1.872737 1.64062,-2.632759 5.93835,-5.001717 10.36246,-8.409844 10.9169,-8.409844 0.88448,0 11.90485,-5.381811 13.90105,-6.788595 1.18508,-0.835157 1.89229,-0.860547 2.65743,-0.09541 0.76514,0.765141 0.21065,1.659126 -2.08357,3.35925 -2.80363,2.077626 -4.91114,3.239493 -14.21778,7.838259 C 260.7299,44.409829 259.0384,45 258.43079,45 c -0.60762,0 -1.57581,0.738281 -2.15152,1.640625 -1.55874,2.443053 -6.90427,5.367327 -6.90427,3.776978 z m 87.68566,-2.02699 c -4.21389,-3.905306 -8.82119,-20.262501 -5.73127,-20.347611 0.47337,-0.01304 1.99489,3.356783 3.38117,7.488493 2.9201,8.703098 4.79096,11.897256 7.46558,12.746148 1.05247,0.334043 1.67163,0.998851 1.37589,1.477353 -0.96493,1.561303 -4.02953,0.917173 -6.49137,-1.364383 z M 239.0625,47.240784 c 0,-2.441831 14.12987,-15.580845 20.20294,-18.786212 10.20631,-5.386883 22.30761,-8.784019 31.54721,-8.85608 4.52449,-0.03529 9.73646,0.434225 11.58217,1.04336 1.84569,0.609135 3.54724,0.916082 3.78122,0.682104 0.38401,-0.384007 -7.71609,-4.212712 -12.19218,-5.762928 -1.30032,-0.450342 -1.51398,-0.905901 -0.77261,-1.647276 2.00492,-2.00492 13.80147,1.797108 19.97525,6.438022 3.05992,2.300187 5.5635,4.538932 5.5635,4.974988 0,0.436057 0.94922,0.927845 2.10937,1.092863 2.28447,0.324936 2.30721,0.608361 0.62604,7.799125 -1.20499,5.154011 -2.46372,6.548814 -4.43417,4.913489 -0.90419,-0.75041 -1.11667,-2.175075 -0.70673,-4.738651 0.69098,-4.321194 -0.5447,-6.268588 -3.97763,-6.268588 -1.32194,0 -5.5874,-0.893397 -9.47882,-1.985328 -5.27065,-1.478948 -8.63358,-1.860438 -13.18479,-1.49568 -7.08665,0.56796 -24.43283,6.214402 -30.79567,10.024448 -2.40699,1.441301 -6.27479,3.623963 -8.5951,4.850361 -2.67798,1.41544 -4.90354,3.507414 -6.09375,5.727973 -1.90281,3.550041 -5.15625,4.808203 -5.15625,1.99401 z m 85.75583,-13.254487 c 0.7452,-2.969121 1.19822,-3.594746 2.01301,-2.779957 0.888,0.888003 -0.47871,5.35616 -1.63833,5.35616 -0.6458,0 -0.78356,-0.947157 -0.37468,-2.576203 z m -20.59958,0.128286 c -1.88513,-1.458625 -8.44923,-1.392098 -13.35938,0.135397 -1.16015,0.360912 -2.10878,0.290594 -2.10807,-0.156263 0.002,-1.364174 10.13004,-5.031217 13.89549,-5.031217 4.0564,0 5.79071,1.319662 5.79071,4.40625 0,2.48701 -1.53543,2.722063 -4.21875,0.645833 z M 248.4375,27.731212 c 0,-0.286077 2.84766,-2.009415 6.32812,-3.829639 3.48047,-1.820226 9.85545,-5.483986 14.16662,-8.14169 5.97059,-3.680682 8.76316,-4.849639 11.71875,-4.905411 2.85666,-0.05391 3.88026,0.297741 3.88026,1.333028 0,0.946522 -0.76621,1.318567 -2.34375,1.13804 -1.28906,-0.147516 -4.36012,0.213961 -6.8246,0.803281 -3.35917,0.803271 -4.81515,1.717983 -5.81636,3.654106 -0.98164,1.898278 -3.39636,3.458641 -9.1129,5.888645 -8.76441,3.725595 -11.99614,4.819254 -11.99614,4.05964 z M 204.375,180.97048 c 0,-0.49748 -0.94922,-1.40261 -2.10938,-2.01141 -2.09806,-1.10097 -2.0998,-1.09612 -0.32344,0.90451 1.98406,2.23457 2.43282,2.43875 2.43282,1.1069 z M 530.59624,178.125 c 3.49991,0 3.68076,-0.15863 5.11969,-4.49085 0.82039,-2.46997 1.62435,-7.00512 1.78658,-10.07813 0.16221,-3.073 0.77593,-6.4815 1.3638,-7.57444 1.20006,-2.23111 6.48602,-5.04408 9.4785,-5.04408 1.98818,0 5.71769,3.01421 5.71769,4.62108 0,0.4791 1.97103,2.20131 4.38008,3.82715 3.93845,2.65804 4.85855,2.89781 9.12586,2.37806 6.45377,-0.78606 7.03569,-1.78877 2.5132,-4.33056 -2.10741,-1.18442 -3.83164,-2.51686 -3.83164,-2.96098 0,-1.72193 4.7185,-5.40975 6.92167,-5.40975 2.55976,0 5.26583,-2.20239 5.26583,-4.28572 0,-1.81036 -0.23363,-1.75255 -5.94637,1.47151 -6.13866,3.46446 -18.90305,5.11183 -19.88009,2.56572 -0.79984,-2.08438 -4.58796,-2.77713 -8.87438,-1.62292 -4.34416,1.16977 -7.82001,6.27398 -8.92142,13.10094 -0.37253,2.30905 -1.29606,5.14259 -2.05229,6.29674 -2.01151,3.06994 -9.44137,6.9073 -14.55271,7.51613 -4.51718,0.53807 -6.98745,2.20635 -5.89187,3.97904 0.33264,0.53821 3.32208,0.97856 6.64321,0.97856 4.19053,0 6.04715,0.35862 6.06693,1.17188 0.0158,0.65036 0.45376,0.44175 0.98408,-0.46875 0.64958,-1.11526 2.11738,-1.64063 4.58365,-1.64063 z m -332.39838,-1.6916 c -2.20092,-1.48495 -8.48318,-6.39692 -10.22835,-7.99733 -1.03166,-0.9461 -3.14138,-2.33806 -4.68826,-3.09325 l -2.8125,-1.37307 2.34375,1.9112 c 1.28906,1.05116 2.97656,2.47437 3.75,3.1627 0.77344,0.68832 3.09375,2.48588 5.15625,3.99455 2.0625,1.50868 4.32757,3.29048 5.03348,3.95957 0.70591,0.66908 1.53745,0.96255 1.84785,0.65215 0.3104,-0.3104 0.12941,-0.85784 -0.40222,-1.21652 z m 148.17278,-4.81328 c 0.29909,-0.48394 -0.0363,-1.22222 -0.74531,-1.64063 -1.84172,-1.08685 -3.43783,-4.45827 -3.43783,-7.26161 0,-1.32296 -0.47579,-2.40538 -1.05732,-2.40538 -0.71866,0 -0.85362,1.27618 -0.42137,3.98437 0.95213,5.96528 4.03594,9.954 5.66183,7.32325 z M 233.34655,157.5 c -3.57237,-4.23662 -5.53405,-5.69285 -5.53405,-4.10814 0,0.31865 1.26562,2.02083 2.8125,3.78262 1.54687,1.7618 2.8125,3.61045 2.8125,4.10814 0,0.49769 0.86887,0.90488 1.93081,0.90488 1.67983,0 1.41705,-0.60928 -2.02176,-4.6875 z M 103.87167,125.22275 c 3.19871,-2.35476 5.79194,-4.59866 5.76276,-4.98643 -0.10682,-1.41895 -11.286208,-8.84016 -12.573039,-8.34636 -3.866615,1.48376 -6.400817,10.76831 -5.398031,19.77677 l 0.516004,4.63548 2.938242,-3.39905 c 1.616035,-1.86948 5.555364,-5.32567 8.754064,-7.68041 z m 366.51232,287.66124 c -1.0487,-1.0487 1.98251,-7.72578 6.83114,-15.04747 2.6732,-4.03669 6.4559,-10.50988 8.40598,-14.38485 3.82881,-7.6082 6.96887,-11.23669 8.4459,-9.75966 0.94196,0.94196 0.23786,2.4988 -5.55871,12.29087 -1.76574,2.98285 -5.14074,9.00931 -7.5,13.39212 -7.40529,13.7569 -8.71328,15.42003 -10.62431,13.50899 z m 23.32332,-255.82018 c -4.62164,-2.78612 -10.90033,-5.37446 -16.28544,-6.71356 -1.73732,-0.43201 -1.42076,-2.02608 0.61916,-3.11781 2.09206,-1.11963 6.3497,0.19096 16.47826,5.07235 3.61595,1.74269 7.34392,3.41232 8.28438,3.71028 2.47614,0.78453 1.5656,3.77304 -1.24919,4.09996 -1.39538,0.16208 -4.55459,-1.06633 -7.84717,-3.05122 z"
     id="path10298"
     inkscape:connector-curvature="0" />
</svg>
